<?xml version="1.0" standalone="no"?>
<!DOCTYPE svg PUBLIC "-//W3C//DTD SVG 1.1//EN" "http://www.w3.org/Graphics/SVG/1.1/DTD/svg11.dtd" >
<svg xmlns="http://www.w3.org/2000/svg">
<metadata>Generated by IcoMoon</metadata>
<defs>
<font id="icomoon" horiz-adv-x="1024">
<font-face units-per-em="1024" ascent="960" descent="-64" />
<missing-glyph horiz-adv-x="1024" />
<glyph unicode="&#x20;" horiz-adv-x="512" d="" />
<glyph unicode="&#xe900;" glyph-name="list-three" d="M0 899.765c0 33.267 27.39 60.235 60.233 60.235h903.534c33.266 0 60.233-26.736 60.233-60.235 0-33.267-27.39-60.235-60.233-60.235h-903.534c-33.266 0-60.233 26.736-60.233 60.235zM0 466.071c0 33.267 27.39 60.235 60.233 60.235h903.534c33.266 0 60.233-26.736 60.233-60.235 0-33.267-27.39-60.235-60.233-60.235h-903.534c-33.266 0-60.233 26.736-60.233 60.235zM0 32.376c0 33.267 27.39 60.235 60.233 60.235h903.534c33.266 0 60.233-26.736 60.233-60.235 0-33.267-27.39-60.235-60.233-60.235h-903.534c-33.266 0-60.233 26.736-60.233 60.235z" />
<glyph unicode="&#xe901;" glyph-name="list-closet" d="M0 823.452c0 75.414 61.378 136.548 136.548 136.548h182.014c75.414 0 136.548-61.378 136.548-136.548v-182.014c0-75.414-61.378-136.548-136.548-136.548h-182.014c-75.414 0-136.548 61.378-136.548 136.548v182.014zM546.133 823.452c0 75.414 61.378 136.548 136.548 136.548h182.014c75.414 0 136.548-61.378 136.548-136.548v-182.014c0-75.414-61.378-136.548-136.548-136.548h-182.014c-75.414 0-136.548 61.378-136.548 136.548v182.014zM0 277.318c0 75.414 61.378 136.548 136.548 136.548h182.014c75.414 0 136.548-61.378 136.548-136.548v-182.014c0-75.414-61.378-136.548-136.548-136.548h-182.014c-75.414 0-136.548 61.378-136.548 136.548v182.014zM546.133 277.318c0 75.414 61.378 136.548 136.548 136.548h182.014c75.414 0 136.548-61.378 136.548-136.548v-182.014c0-75.414-61.378-136.548-136.548-136.548h-182.014c-75.414 0-136.548 61.378-136.548 136.548v182.014z" />
<glyph unicode="&#xe902;" glyph-name="list-block" d="M136.533 960h750.933c75.405 0 136.533-61.128 136.533-136.533v-750.933c0-75.405-61.128-136.533-136.533-136.533h-750.933c-75.405 0-136.533 61.128-136.533 136.533v750.933c0 75.405 61.128 136.533 136.533 136.533z" />
<glyph unicode="&#xe903;" glyph-name="footer-mine" horiz-adv-x="993" d="M496.485 136.474c205.321 0 372.364 166.614 372.364 371.433 0 204.8-167.042 371.414-372.364 371.414s-372.364-166.614-372.364-371.414c0-204.819 167.042-371.433 372.364-371.433zM421.99 601.92c0-28.281-12.493-51.2-27.909-51.2s-27.909 22.919-27.909 51.2c0 28.281 12.493 51.2 27.909 51.2s27.909-22.919 27.909-51.2zM626.79 601.92c0-28.281-12.493-51.2-27.909-51.2s-27.909 22.919-27.909 51.2c0 28.281 12.493 51.2 27.909 51.2s27.909-22.919 27.909-51.2zM679.181 401.455c0 0-37.149-135.319-175.422-139.545-138.291-4.226-193.456 139.545-193.456 139.545s102.691-25.356 184.448-25.356c72.082 0 184.43 25.356 184.43 25.356zM197.393 544.704c-0.521 0-1.080 0.037-1.601 0.13-5.064 0.894-8.471 5.697-7.596 10.761 0.559 3.202 13.926 78.96 47.849 129.527 26.903 40.122 56.227 65.275 57.456 66.318 3.891 3.314 9.775 2.886 13.126-1.043 3.333-3.91 2.867-9.793-1.043-13.126-0.279-0.242-28.672-24.632-54.086-62.52-31.725-47.309-44.814-121.577-44.944-122.321-0.801-4.524-4.729-7.727-9.16-7.727zM194.049 459.466c-4.543 0-8.527 3.351-9.197 7.987-2.439 16.924-0.168 53.862-0.074 55.426 0.335 5.139 4.878 9.216 9.868 8.713 5.139-0.335 9.048-4.748 8.713-9.868-0.019-0.372-2.234-36.603-0.074-51.628 0.726-5.083-2.793-9.793-7.894-10.538-0.447-0.056-0.894-0.093-1.341-0.093z" />
<glyph unicode="&#xe908;" glyph-name="income" d="M102.4 695.296c-42.496 0-76.8 34.304-76.8 76.8s34.304 76.8 76.8 76.8c42.496 0 76.8-34.304 76.8-76.8 0-41.984-34.304-76.8-76.8-76.8zM102.4 812.032c-22.016 0-39.936-17.92-39.936-39.936s17.92-39.936 39.936-39.936c22.016 0 39.936 17.92 39.936 39.936s-17.92 39.936-39.936 39.936zM979.968 753.664h-668.672c-10.24 0-18.432 8.192-18.432 18.432s8.192 18.432 18.432 18.432h668.672c10.24 0 18.432-8.192 18.432-18.432s-8.192-18.432-18.432-18.432zM102.4 371.2c-42.496 0-76.8 34.304-76.8 76.8s34.304 76.8 76.8 76.8c42.496 0 76.8-34.304 76.8-76.8s-34.304-76.8-76.8-76.8zM102.4 487.936c-22.016 0-39.936-17.92-39.936-39.936s17.92-39.936 39.936-39.936c22.016 0 39.936 17.92 39.936 39.936s-17.92 39.936-39.936 39.936zM979.968 429.568h-668.672c-10.24 0-18.432 8.192-18.432 18.432s8.192 18.432 18.432 18.432h668.672c10.24 0 18.432-8.192 18.432-18.432s-8.192-18.432-18.432-18.432zM269.824 482.304h733.184v-60.928h-733.184v60.928zM102.4 47.104c-42.496 0-76.8 34.304-76.8 76.8s34.304 76.8 76.8 76.8c42.496 0 76.8-34.304 76.8-76.8s-34.304-76.8-76.8-76.8zM102.4 163.84c-22.016 0-39.936-17.92-39.936-39.936s17.92-39.936 39.936-39.936c22.016 0 39.936 17.92 39.936 39.936s-17.92 39.936-39.936 39.936zM979.968 105.472h-668.672c-10.24 0-18.432 8.192-18.432 18.432s8.192 18.432 18.432 18.432h668.672c10.24 0 18.432-8.192 18.432-18.432s-8.192-18.432-18.432-18.432z" />
<glyph unicode="&#xe909;" glyph-name="withdrawCash" d="M270.336 422.912c-25.6 0-47.104 21.504-47.104 47.616s20.992 47.616 47.104 47.616 47.104-21.504 47.104-47.616c0-26.112-20.992-47.616-47.104-47.616zM512 422.912c-25.6 0-47.104 21.504-47.104 47.616s20.992 47.616 47.104 47.616c25.6 0 47.104-21.504 47.104-47.616s-21.504-47.616-47.104-47.616zM753.664 422.912c-25.6 0-47.104 21.504-47.104 47.616s20.992 47.616 47.104 47.616c26.112 0 47.104-21.504 47.104-47.616-0.512-26.112-21.504-47.616-47.104-47.616zM270.336 194.048c-25.6 0-47.104 21.504-47.104 47.616 0 26.624 20.992 47.616 47.104 47.616s47.104-21.504 47.104-47.616c0-26.112-20.992-47.616-47.104-47.616zM512 194.048c-25.6 0-47.104 21.504-47.104 47.616 0 26.624 20.992 47.616 47.104 47.616 25.6 0 47.104-21.504 47.104-47.616s-21.504-47.616-47.104-47.616zM817.664-38.4h-611.328c-72.704 0-131.584 60.416-131.584 134.144v704.512c0 73.728 59.392 134.144 131.584 134.144h611.328c72.704 0 131.584-60.416 131.584-134.144v-704.512c0-73.728-59.392-134.144-131.584-134.144zM206.336 899.072c-53.248 0-96.768-44.544-96.768-98.816v-704.512c0-54.272 43.52-98.816 96.768-98.816h611.328c53.248 0 96.768 44.544 96.768 98.816v704.512c0 54.272-43.52 98.816-96.768 98.816h-611.328zM756.736 689.664h-489.472c-9.728 0-17.408 7.68-17.408 17.92 0 9.728 7.68 17.92 17.408 17.92h489.984c9.728 0 17.408-7.68 17.408-17.92-0.512-10.24-8.192-17.92-17.92-17.92zM752.64 195.584c-25.6 0-47.104 21.504-47.104 47.616 0 26.624 20.992 47.616 47.104 47.616s47.104-21.504 47.104-47.616c-0.512-26.112-21.504-47.616-47.104-47.616z" />
<glyph unicode="&#xe90a;" glyph-name="refund" d="M558.359 7.962c-114.967 0-223.789 44-306.444 124.080-8.325 7.93-8.525 21.21-0.398 29.535 7.93 8.325 21.21 8.525 29.535 0.4 74.727-72.55 173.242-112.39 277.307-112.39 219.624 0 398.414 178.79 398.414 398.414s-178.79 398.414-398.414 398.414c-219.627 0-398.417-178.79-398.417-398.414 0-27.155 2.775-54.115 8.125-80.28 2.38-11.295-4.955-22.2-16.252-24.575-11.297-2.38-22.2 4.955-24.58 16.25-5.945 28.94-8.92 58.87-8.92 88.605 0 242.614 197.424 440.039 440.044 440.039 242.614 0 440.039-197.425 440.039-440.039-0.001-242.619-197.425-440.039-440.039-440.039zM153.202 320.352c-5.352 0-10.705 1.98-14.667 6.145l-106.84 106.834c-8.127 8.13-8.127 21.21 0 29.535s21.21 8.125 29.535 0l91.972-92.17 92.17 92.17c8.127 8.125 21.21 8.125 29.535 0s8.127-21.21 0-29.535l-106.84-106.835c-4.162-4.164-9.512-6.144-14.865-6.144zM527.239 474.956c-7.335 0-14.272 3.765-18.040 10.505l-109.218 191.875c-5.747 9.91-2.18 22.795 7.73 28.345 10.11 5.75 22.795 2.18 28.345-7.73l109.217-191.875c5.75-9.91 2.18-22.795-7.73-28.345-3.369-1.98-6.934-2.775-10.304-2.775zM602.558 474.956c-3.565 0-6.935 0.795-10.305 2.775-9.915 5.75-13.48 18.435-7.73 28.345l109.215 191.875c5.75 9.91 18.435 13.48 28.345 7.73 9.91-5.745 13.48-18.435 7.73-28.345l-109.215-191.875c-3.77-6.74-10.705-10.505-18.040-10.505zM711.973 474.956h-307.037c-11.495 0-20.812 9.32-20.812 20.815s9.317 20.81 20.812 20.81h307.037c11.5 0 20.815-9.315 20.815-20.81s-9.315-20.815-20.815-20.815zM686.008 349.292h-255.104c-11.497 0-20.812 9.315-20.812 20.81s9.315 20.815 20.812 20.815h255.104c11.495 0 20.815-9.32 20.815-20.815s-9.32-20.81-20.815-20.81zM558.359 174.857c-11.5 0-20.815 9.32-20.815 20.815v300.099c0 11.495 9.315 20.81 20.815 20.81 11.495 0 20.81-9.315 20.81-20.81v-300.099c0-11.495-9.315-20.815-20.81-20.815z" />
<glyph unicode="&#xe90b;" glyph-name="group" d="M757.76 857.6h-491.52c-90.112 0-163.84-73.728-163.84-163.84v-491.52c0-90.107 73.728-163.84 163.84-163.84h491.52c90.102 0 163.84 73.733 163.84 163.84v491.52c0 90.112-73.738 163.84-163.84 163.84zM886.492 213.944c0-77.24-63.201-140.431-140.436-140.431h-468.111c-77.245 0-140.431 63.191-140.431 140.431v468.111c0 77.24 63.191 140.436 140.431 140.436h468.111c77.235 0 140.436-63.196 140.436-140.436v-468.111zM746.184 702.474c-21.407 0-38.764-17.357-38.764-38.764 0-13.988 7.475-26.138 18.58-32.957-3.267-115.507-97.695-208.2-214.001-208.2-116.465 0-211.026 92.964-214.026 208.712 10.604 6.917 17.644 18.836 17.644 32.445 0 21.412-17.357 38.764-38.764 38.764-21.412 0-38.769-17.357-38.769-38.764 0-16.532 10.394-30.546 24.965-36.122 4.92-133.417 114.33-240.143 248.95-240.143 134.723 0 244.204 106.89 248.965 240.451 14.070 5.816 23.982 19.645 23.982 35.814 0 21.407-17.357 38.764-38.764 38.764z" />
<glyph unicode="&#xe90c;" glyph-name="heart-empty" d="M335.37 798.848c-102.124 0-212.214-88.965-212.214-232.417 0-145.49 132.147-252.431 228.71-330.644 39.107-31.877 67.092-53.75 89.702-71.357 32.251-25.206 51.712-40.591 70.615-58.752 25.206 24.837 50.596 44.667 110.275 91.187 14.459 11.305 30.766 24.095 49.859 38.922 110.648 86.738 228.895 191.084 228.895 332.498 0 142.71-110.090 230.932-212.029 230.932-66.35 0-126.029-35.768-168.289-100.454l-8.525-13.158-8.525 13.158c-42.629 64.502-102.308 100.086-168.474 100.086zM512 75.653l-7.229 7.414c-20.388 20.756-38.922 35.4-75.802 64.312-22.61 17.608-50.596 39.665-89.702 71.357-100.086 81.178-236.867 191.826-236.867 347.694 0 156.795 121.027 253.732 232.97 253.732 68.946 0 131.036-34.473 176.63-97.306 45.594 63.017 107.868 97.49 176.814 97.49 111.944 0 232.786-96.379 232.786-252.247 0-163.84-154.204-284.682-237.051-349.548-18.903-14.828-35.4-27.617-49.859-38.922-64.497-50.227-88.591-69.13-115.466-96.563l-7.224-7.414z" />
<glyph unicode="&#xe90d;" glyph-name="share-line" d="M292.598 265.842c-3-16.4 8-32.2 24.4-35.2 1.8-0.4 3.6-0.4 5.6-0.4 14.4 0 27.2 10.2 29.8 24.8 0.2 1.2 24.4 128.4 108.2 254.6 48.8 73.6 107.8 132 175.6 173.8 64.6 39.8 137.8 64.8 218.2 74.2l-99-101.6c-11.6-12-11.4-31.2 0.6-42.8 5.8-5.6 13.6-8.6 21.2-8.6 8 0 15.8 3 21.8 9.2l153 157.2c0.2 0.2 0.2 0.2 0.4 0.4s0.4 0.4 0.4 0.4 0.4 0.4 0.4 0.6v0c0.2 0.2 0.4 0.4 0.4 0.6 0.2 0.2 0.4 0.4 0.4 0.6 0.2 0.2 0.2 0.4 0.4 0.6s0.4 0.4 0.4 0.6c0.2 0.2 0.2 0.4 0.4 0.4 0.2 0.2 0.2 0.4 0.4 0.4 0 0 0 0.2 0.2 0.2 0 0 0 0 0 0.2s0.2 0.4 0.2 0.4 0.4 0.6 0.4 0.8 0.2 0.4 0.2 0.4v0.2c0.2 0.2 0.2 0.4 0.4 0.6 0 0.2 0.2 0.4 0.2 0.6 0.2 0.2 0.2 0.6 0.4 0.8 0 0.2 0.2 0.4 0.2 0.6s0.2 0.4 0.2 0.8c0 0.2 0.2 0.4 0.2 0.8 0 0.2 0.2 0.4 0.2 0.6s0.2 0.6 0.2 0.8 0.2 0.4 0.2 0.6c0 0.2 0.2 0.6 0.2 0.8s0 0.4 0.2 0.6c0 0 0 0 0 0.2s0.2 0.6 0.2 0.8 0 0.4 0 0.4c0 0.2 0 0.2 0 0.4s0 0.4 0 0.6c0 0.2 0 0.2 0 0.4s0 0.4 0 0.6c0 0.2 0 0.2 0 0.4s0 0.2 0 0.4v0.2c0 0.2 0 0.6 0 0.8 0 0 0 0 0 0.2s0 0.4 0 0.4v0c0 0.4 0 0.6 0 1v0 0c0 0.4 0 1 0 1.4 0 0 0 0 0 0.2v0.2c0 0.4 0 0.6 0 1 0 0.2 0 0.2 0 0.4v0 0.2c0 0.4 0 0.6-0.2 1 0 0.2 0 0.2 0 0.4v0.2c0 0.2 0 0.6-0.2 0.8 0 0.2 0 0.4-0.2 0.6v0 0.2c0 0.2 0 0.4-0.2 0.6 0 0.4-0.2 0.6-0.2 1 0 0.2 0 0.2-0.2 0.4-0.2 0.4-0.2 0.8-0.4 1.2v0.2c0 0.2-0.2 0.6-0.2 0.8v0c0 0.2 0 0.2-0.2 0.4 0 0 0 0 0 0.2-0.2 0.2-0.2 0.6-0.4 0.8 0 0.2-0.2 0.2-0.2 0.4v0c-0.2 0.2-0.2 0.6-0.4 0.8v0c-0.2 0.6-0.6 1.2-1 1.8v0c-0.2 0.4-0.4 0.8-0.8 1.2 0 0 0 0 0 0.2-0.2 0.2-0.2 0.4-0.4 0.6v0c0 0.2-0.2 0.2-0.2 0.4s-0.2 0.2-0.2 0.4l-0.6 0.6c-0.2 0.2-0.4 0.4-0.4 0.6s-0.2 0.2-0.2 0.4c0 0 0 0.2-0.2 0.2-0.2 0.2-0.4 0.4-0.6 0.8l-0.2 0.2c-0.2 0.4-0.6 0.6-0.8 1v0c-0.4 0.4-0.6 0.6-1 1v0c-0.4 0.4-0.6 0.6-1 1v0c-0.4 0.2-0.6 0.6-1 0.8 0 0 0 0-0.2 0.2-0.4 0.2-0.6 0.4-1 0.6l-0.2 0.2c-0.2 0.2-0.4 0.2-0.4 0.4-0.2 0-0.2 0.2-0.4 0.2s-0.2 0.2-0.4 0.2-0.2 0.2-0.4 0.2-0.2 0.2-0.4 0.2-0.4 0.2-0.6 0.2c-0.2 0.2-0.6 0.2-0.8 0.4-0.2 0-0.4 0.2-0.6 0.2-0.2 0.2-0.4 0.2-0.8 0.4-0.2 0-0.4 0.2-0.6 0.2s-0.4 0.2-0.6 0.2c-0.2 0-0.4 0.2-0.8 0.2-0.2 0-0.4 0.2-0.6 0.2s-0.2 0-0.4 0.2l-222.4 73.2c-16 5.2-33-3.4-38.4-19.2-5.2-15.8 3.4-33 19.2-38.2l89.6-29.6c-65.8-14.2-127-38.6-182.8-72.8-75.4-46.4-140.6-111-194.4-191.8-90.2-136.6-115.8-271.4-116.8-277zM929.398 442.842c-16.8 0-30.4-13.6-30.4-30.2v-285.6c0-36.6-30-66.4-66.8-66.4h-640.4c-36.8 0-66.8 29.8-66.8 66.4v599.8c0 36.6 30 66.4 66.8 66.4h208.8c16.8 0 30.4 13.6 30.4 30.2s-13.6 30.2-30.4 30.2h-208.8c-70.2 0-127.4-57-127.4-126.8v-599.8c0-70 57.2-127 127.4-127h640.4c70.2 0 127.4 57 127.4 127v285.6c0.2 16.6-13.4 30.2-30.2 30.2z" />
<glyph unicode="&#xe90e;" glyph-name="vote" d="M921.236 404.48l-0.364-1.644-0.184-1.828c-0.184-1.464-12.984-150.492-78.080-282.88-9.876-20.116-25.784-50.284-25.784-50.284-0.548-0.916-18.104-31.452-62.72-33.644l-146.652-0.922c-12.252 0-45.896 0.548-96.916 4.756-14.996 3.108-121.6 26.148-177.92 42.788v484.019c0 0.732-0.184 1.464-0.184 2.196v2.012c37.673 22.492 118.129 86.856 115.753 238.812 2.56 9.508 13.896 40.96 51.384 44.436 1.096 0.179 2.191 0.179 3.471 0.179 16.456 0 44.436-10.788 69.12-40.96 22.308-27.428 56.32-89.6 33.828-198.036l-7.316-35.292 233.508-6.948c19.932 0 84.844-4.756 94.536-65.644-0.543-32.364-2.555-85.944-5.478-101.12zM302.264 83.384c0-6.584-5.668-11.884-12.8-11.884h-169.144c-6.948 0-12.8 5.304-12.8 11.884v482.376c0 6.584 5.668 11.884 12.8 11.884h169.324c6.036 0 10.972-4.024 12.252-9.324l0.548-477.44v-7.496h-0.179z" />
<glyph unicode="&#xe90f;" glyph-name="vote-line" d="M888.238 412.298l-0.374-1.5-0.189-1.684c-0.189-1.311-11.996-140.186-72.719-263.322-9.185-18.739-23.987-46.853-23.987-46.853-0.374-0.748-16.865-29.235-58.286-31.299l-136.627-0.937c-11.433 0-42.732 0.374-90.148 4.311-13.87 2.811-113.198 24.366-165.678 39.921v450.545c0 0.748-0.189 1.311-0.189 2.063v2.063c35.046 20.992 110.013 80.778 107.766 222.275 2.437 8.806 12.933 38.231 47.79 41.421 1.126 0.189 2.063 0.189 3.185 0.189 15.37 0 41.421-9.933 64.282-38.231 20.803-25.487 52.475-83.4 31.488-184.417l-6.748-32.983 33.546-1.126 183.859-5.437c18.555 0 79.089-4.5 88.084-61.097-0.553-29.993-2.243-80.031-5.053-93.901zM311.931 78.321c0-6.559-5.248-11.807-11.807-11.807h-157.619c-6.559 0-11.807 5.248-11.807 11.807v483.159c0 6.559 5.248 11.807 11.807 11.807h157.619c5.622 0 10.122-4.122 11.433-9.37l0.563-478.1v-7.496h-0.189zM805.212 595.589c-1.684 0-2.621 0-2.621 0l-180.296 5.437c34.857 167.736-60.723 256.573-123.51 256.573-1.874 0-3.937 0-5.811-0.189-62.408-5.622-73.656-66.534-73.656-66.534 3-127.068-60.913-181.422-91.832-200.351-7.122 6.932-16.865 11.059-27.551 11.059h-157.43c-22.113 0-40.105-17.992-40.105-40.105v-482.975c0-22.113 17.992-40.105 40.105-40.105h157.619c22.113 0 40.105 17.992 40.105 40.105v3.374c59.412-17.055 161.551-38.794 161.551-38.794 49.48-4.122 82.463-4.5 94.269-4.5 3.185 0 4.874 0 4.874 0l133.064 0.937c59.412 2.811 82.089 46.479 82.089 46.479s14.991 28.298 24.366 47.416c63.908 129.879 75.53 273.628 75.53 273.628 4.5 22.118 5.627 101.207 5.627 101.207-11.244 83.405-99.891 87.337-116.388 87.337z" />
<glyph unicode="&#xe910;" glyph-name="heart" d="M512 75.638l-7.306 7.485c-20.321 20.833-38.861 35.364-75.802 64.302-22.548 17.669-50.611 39.654-89.626 71.316-100.137 81.157-236.867 191.98-236.867 347.73 0 156.78 120.95 253.819 233.011 253.819 68.864 0 131.072-34.447 176.589-97.377 45.553 62.981 107.848 97.454 176.824 97.454 111.949-0.005 232.776-96.445 232.776-252.252 0-163.855-154.179-284.616-237-349.496-18.97-14.858-35.425-27.684-49.848-38.932-64.507-50.284-88.643-69.105-115.446-96.573l-7.306-7.475z" />
<glyph unicode="&#xe911;" glyph-name="heart-broken" d="M688.824 820.362c-31.283 0-61.164-7.163-88.76-20.782l-76.856-202.9 120.883-129.618-132.091-148.424 33.019-106.404-83.123 119.613 75.013 116.152-134.584 124.498 67.185 196.797c-38.83 33.208-84.731 50.995-134.098 50.995-112.067 0-233.011-97.039-233.011-253.819 0-155.745 136.73-266.568 236.867-347.73 39.020-31.662 67.077-53.652 89.626-71.316 36.941-28.938 55.48-43.469 75.802-64.302l7.306-7.485 7.301 7.475c26.803 27.474 50.934 46.295 115.446 96.573 14.423 11.244 30.879 24.069 49.848 38.932 82.826 64.876 237.005 185.641 237.005 349.496 0 155.807-120.827 252.247-232.776 252.247z" />
<glyph unicode="&#xe912;" glyph-name="remark" d="M735.606 579.287h-447.217c-7.741 0-14.075-6.328-14.075-14.070s6.333-14.070 14.075-14.070h447.217c7.741 0 14.080 6.328 14.080 14.070s-6.339 14.070-14.080 14.070zM735.606 425.82h-447.217c-7.741 0-14.075-6.328-14.075-14.070 0-7.757 6.333-14.095 14.075-14.095h447.217c7.741 0 14.080 6.339 14.080 14.095 0 7.747-6.339 14.070-14.080 14.070zM893.44 462.464c0-7.741 6.328-14.095 14.080-14.095 7.741 0 14.070 6.354 14.070 14.095v179.471l0.010 70.666c0 13.686-11.551 24.817-25.723 24.817h-767.77c-14.167 0-25.708-11.131-25.708-24.817v-454.717c0-13.686 11.54-24.817 25.708-24.817h303.662l69.545-69.555c0.23-0.261 0.323-0.614 0.579-0.865 2.78-2.785 6.436-4.122 10.107-4.070 3.656-0.051 7.322 1.285 10.092 4.070 0.256 0.251 0.348 0.604 0.579 0.865l69.54 69.555h303.667c14.172 0 25.723 11.126 25.723 24.817l-0.015 81.69c0 7.767-6.328 14.095-14.070 14.095-7.757 0-14.080-6.328-14.080-14.095v-78.372l-312.684 0.21-68.751-68.751-68.767 68.751h-39.813l0.205-0.21h-273.070v448.082h762.88v-246.82z" />
<glyph unicode="&#xe913;" glyph-name="customerEval" d="M525.133-48.555c272.913 0 494.959 222.063 494.959 494.942 0 272.887-222.046 494.933-494.959 494.933-272.879 0-494.908-222.046-494.908-494.933 0-272.879 222.029-494.942 494.908-494.942v0 0zM525.133 879.462c238.822 0 433.075-194.27 433.075-433.067 0-238.814-194.253-433.084-433.075-433.084-238.788 0-433.050 194.278-433.050 433.084 0.009 238.797 194.261 433.067 433.050 433.067v0 0zM525.133 772.565c106.692 0 193.212-85.777 193.212-191.633 0-105.813-86.468-191.582-193.212-191.582-106.701 0-193.135 85.769-193.135 191.582 0 105.847 86.477 191.633 193.135 191.633v0 0zM525.133 444.117c76.228 0 138.018 61.278 138.018 136.858 0 75.605-61.79 136.858-138.018 136.858-76.194 0-137.975-61.286-137.975-136.858 0-75.614 61.781-136.858 137.975-136.858v0 0zM525.133 444.117c152.457 0 276.028-122.547 276.028-273.715h-55.219c0 120.909-98.867 218.948-220.809 218.948-121.916 0-220.774-98.039-220.774-218.948h-55.211c0.009 151.168 123.554 273.715 275.985 273.715v0 0z" />
<glyph unicode="&#xe914;" glyph-name="checkIcon" d="M907.631 737.365l-560.691-420.54-183.509 131.115c0 0-76.595 65.092-124.058 41.344-50.202-25.131 0-82.714 0-82.714l302.020-289.365 648.917 620.16c0 0 37.385 37.734 0 41.344-24.030 2.313-82.679-41.344-82.679-41.344z" />
<glyph unicode="&#xe915;" glyph-name="scoreStar" d="M512 919.322l152.951-309.905 341.982-49.69-247.467-241.22 58.419-340.608-305.886 160.819-305.886-160.819 58.419 340.608-247.467 241.22 341.982 49.69z" />
<glyph unicode="&#xe916;" glyph-name="add" d="M904.566 465.034h-375.526v375.532c0 9.4-7.634 17.034-17.034 17.034s-17.039-7.634-17.039-17.034v-375.526h-375.532c-9.4-0.005-17.034-7.634-17.034-17.039s7.634-17.034 17.034-17.034h375.526v-375.526c0-9.405 7.639-17.034 17.039-17.034s17.034 7.634 17.034 17.034v375.526h375.526c9.405 0 17.034 7.634 17.034 17.034 0.005 9.405-7.624 17.034-17.029 17.034z" />
<glyph unicode="&#xe917;" glyph-name="cart" d="M807.475 80.86c0-23.455-19.016-42.46-42.46-42.46-23.455 0-42.465 19.016-42.465 42.46 0 23.455 19.016 42.465 42.465 42.465 23.444 0.005 42.46-19.005 42.46-42.465zM399.759 80.86c0-23.455-19.016-42.46-42.465-42.46s-42.46 19.016-42.46 42.46c0 23.455 19.016 42.465 42.46 42.465s42.465-19.005 42.465-42.465zM900.654 651.812l-85.729-317.251c-4.301-16.169-19.139-23.086-37.821-23.086h-497.843l-51.19 389.601h634.752c13.501 0 25.364-7.828 32.543-17.178 6.318-8.223 8.182-21.212 5.289-32.087zM926.285 706.97c-14.623 19.041-37.76 33.526-63.473 33.526h-639.923l-6.62 50.391c-4.838 37.151-36.669 66.714-77.399 66.714h-36.332c-10.767 0-19.497-8.929-19.497-19.702 0-10.778 8.73-19.707 19.497-19.707h36.332c16.108 0 35.927-9.114 38.723-30.633l74.45-569.769c4.951-37.99 37.494-61.701 77.394-61.701h494.566c10.778 0 19.502 8.366 19.502 19.144s-8.724 19.144-19.502 19.144h-494.561c-20.372 0-36.301 11.31-38.723 29.911l-6.277 47.78h492.667c36.316 0 66.668 19.891 75.51 53.105l85.709 316.554c6.011 22.548 1.633 47.457-12.042 65.244z" />
<glyph unicode="&#xe918;" glyph-name="address" d="M511.846 857.6c-170.757 0-312.484-129.203-312.484-298.788-0.005-169.58 312.484-520.412 312.484-520.412s312.796 355.313 312.796 520.412c0 165.094-142.034 298.788-312.796 298.788zM245.12 560.425c-0.466 142.218 115.523 253.292 266.88 253.752 151.357 0.466 269.056-114.683 269.23-256.241s-268.641-456.504-268.641-456.504-267.008 316.785-267.469 458.993zM512 678.129c-72.54 0-131.343-58.803-131.343-131.343s58.803-131.343 131.343-131.343c72.54 0 131.343 58.803 131.343 131.343 0 72.535-58.803 131.343-131.343 131.343zM512 455.060c-50.575 0-91.72 41.144-91.72 91.72s41.144 91.72 91.72 91.72 91.72-41.144 91.72-91.72c0-50.57-41.144-91.72-91.72-91.72z" />
<glyph unicode="&#xe919;" glyph-name="back" d="M715.494 38.4l-433.613 408.791 433.562 410.409 26.675-28.18-403.784-382.177 403.732-380.662z" />
<glyph unicode="&#xe91a;" glyph-name="book" d="M427.919 704.758h164.572c12.447 0 22.569 10.163 22.569 22.625s-10.127 22.605-22.569 22.605h-164.572c-12.477 0-22.569-10.143-22.569-22.605-0.005-12.462 10.092-22.625 22.569-22.625zM845.588 86.369c0-7.46-6.067-13.527-13.527-13.527h-640.108c-7.475 0-13.527 6.083-13.527 13.527v723.246c0 7.48 6.067 13.527 13.527 13.527h640.092c7.475 0 13.527-6.067 13.527-13.527v-723.246h0.015zM832.046 857.6h-640.092c-26.445 0-47.949-21.524-47.949-47.985v-723.246c0-26.46 21.524-47.969 47.949-47.969h640.092c26.424 0 47.949 21.509 47.949 47.969v723.246c0 26.46-21.524 47.985-47.949 47.985zM305.859 598.523h-19.886c-8.996 0-16.246-7.265-16.246-16.261 0-8.991 7.25-16.261 16.246-16.261h19.886c9.011 0 16.297 7.27 16.297 16.261 0 9.011-7.286 16.261-16.297 16.261zM305.859 490.061h-19.886c-8.996 0-16.246-7.301-16.246-16.276s7.25-16.282 16.246-16.282h19.886c9.011 0 16.297 7.301 16.297 16.282 0 8.97-7.286 16.276-16.297 16.276zM305.859 273.459h-19.886c-8.996 0-16.246-7.27-16.246-16.261 0-8.975 7.25-16.261 16.246-16.261h19.886c9.011 0 16.297 7.286 16.297 16.261 0 9.027-7.286 16.261-16.297 16.261zM718.157 273.459h-343.593c-8.96 0-16.297-7.27-16.297-16.261 0-8.975 7.322-16.261 16.297-16.261h343.593c8.975 0 16.282 7.286 16.282 16.261 0 9.027-7.301 16.261-16.282 16.261zM305.859 381.542h-19.886c-8.996 0-16.246-7.235-16.246-16.261 0-8.975 7.25-16.276 16.246-16.276h19.886c9.011 0 16.297 7.301 16.297 16.276 0 9.006-7.286 16.261-16.297 16.261zM718.157 381.542h-343.593c-8.96 0-16.297-7.235-16.297-16.261 0-8.975 7.322-16.276 16.297-16.276h343.593c8.975 0 16.282 7.301 16.282 16.276 0 9.006-7.301 16.261-16.282 16.261zM718.157 489.605h-343.593c-8.96 0-16.297-7.322-16.297-16.297s7.322-16.261 16.297-16.261h343.593c8.975 0 16.282 7.286 16.282 16.261s-7.301 16.297-16.282 16.297zM718.157 598.088h-343.593c-8.96 0-16.297-7.301-16.297-16.261 0-8.996 7.322-16.297 16.297-16.297h343.593c8.975 0 16.282 7.301 16.282 16.297 0 8.96-7.301 16.261-16.282 16.261z" />
<glyph unicode="&#xe91b;" glyph-name="box" d="M888.832 153.108c0-45.189-36.751-81.92-81.92-81.92h-589.824c-45.169 0-81.92 36.731-81.92 81.92v327.66c0 45.189 36.751 81.961 81.92 81.961h589.824c45.169 0 81.92-36.772 81.92-81.961v-327.66zM806.912 595.482h-589.824c-63.242 0-114.688-51.471-114.688-114.714v-327.66c0-63.242 51.446-114.714 114.688-114.714h589.824c63.227 0 114.688 51.471 114.688 114.714v327.66c0 63.242-51.461 114.714-114.688 114.714zM315.392 628.224c9.042 0 16.384 7.342 16.384 16.374 0 99.364 80.855 180.25 180.224 180.25 99.384 0 180.224-80.886 180.224-180.25 0-9.027 7.322-16.374 16.384-16.374s16.384 7.342 16.384 16.374c0 117.458-95.549 213.007-212.992 213.007s-212.992-95.544-212.992-213.007c0-9.027 7.322-16.374 16.384-16.374zM256.507 448.886c0-27.172 22.006-49.167 49.152-49.167s49.152 21.99 49.152 49.167c0 27.121-22.006 49.126-49.152 49.126s-49.152-22.001-49.152-49.126zM666.107 448.886c0-27.172 22.006-49.167 49.152-49.167s49.152 21.99 49.152 49.167c0 27.121-22.006 49.126-49.152 49.126s-49.152-22.001-49.152-49.126z" />
<glyph unicode="&#xe91c;" glyph-name="card" d="M953.416 656.768c-294.287 0-588.57-0.031-882.862 0-0.056 15.007-0.748 30.433 3.645 44.867 7.127 24.172 22.159 45.527 41.62 59.11 12.841 8.678 28.006 12.375 42.988 12.042h695.977c11.023-0.092 22.328 0.604 33.014-3 27.617-8.315 51.113-31.734 61.466-61.164 5.709-16.548 3.84-34.55 4.152-51.855zM949.105 180.47c-7.439-24.996-26.337-45.348-49.080-53.028-13.281-4.572-27.372-4.209-41.119-4.178h-706.258c-17.628-0.148-35.804 4.086-50.115 15.944-20.598 15.79-32.323 43.32-31.928 70.82-0.195 110.269-0.031 220.513-0.087 330.783 294.287 0.031 588.549 0 882.842 0 0.087-104.858 0-209.736 0.056-314.655 0.061-15.309 0.282-31.037-4.311-45.686zM995.487 253.23c0.026 140.431 0 280.893 0.026 421.361 0.276 15.944-1.142 32.072-5.868 47.222-15.841 50.371-58.491 89.001-106.373 96.292-14.228 1.751-28.559 0.824-42.844 1.060-229.837-0.143-459.679 0.271-689.521-0.21-46.326-0.758-87.695-35.517-108.017-80.108-9.631-19.635-14.505-41.964-14.449-64.261 0.056-154.834-0.026-309.663 0.031-464.497 0.589-12.856 1.28-25.902 4.762-38.246 8.602-34.847 31.319-65.070 60.718-80.927 19.937-11.525 42.783-14.556 64.978-14.065 238.136 0.061 476.278 0 714.409 0 12.39 0.635 25.057 1.178 36.92 5.627 38.441 11.679 70.067 46.863 80.456 89.303 6.907 26.481 4.229 54.308 4.772 81.449z" />
<glyph unicode="&#xe91d;" glyph-name="case" d="M834.222 260.137c0-8.013-6.502-14.51-14.51-14.51h-199.962c-8.018 0-14.51 6.502-14.51 14.51 0 8.018 6.497 14.51 14.51 14.51h199.962c8.018 0 14.51-6.497 14.51-14.51zM834.222 371.651c0-8.013-6.502-14.51-14.51-14.51h-293.207c-8.018 0-14.51 6.497-14.51 14.51s6.497 14.51 14.51 14.51h293.207c8.018 0.005 14.51-6.492 14.51-14.51zM893.86 575.642h-764.621c-1.004 0-0.916 0.507-0.916 1.126v26.772c0 0-0.087 1.126 0.916 1.126h764.621c1.004 0 1.823-0.507 1.823-1.126v-26.772c-0.005-0.625-0.819-1.126-1.823-1.126zM208.927 828.585c-8.632 0-18.765-8.438-21.683-18.058l-56.812-186.875c-1.27-4.168-2.109-18.872-2.109-23.716v-510.469c0-12.16 9.892-22.052 22.047-22.052h723.267c12.155 0 22.042 9.892 22.042 22.052v510.474c0 4.844-0.84 19.553-2.104 23.711l-56.801 186.87c-2.918 9.626-13.056 18.063-21.693 18.063h-606.152zM873.636 38.4h-723.267c-28.16 0-51.072 22.917-51.072 51.077v510.464c0 0.21 0.251 21.934 3.364 32.159l56.812 186.86c6.692 22.031 27.95 38.641 49.449 38.641h606.157c21.509 0 42.772-16.614 49.464-38.651l56.801-186.86c3.108-10.22 3.359-31.944 3.359-32.154v-510.469c0-28.15-22.912-51.067-51.067-51.067z" />
<glyph unicode="&#xe91e;" glyph-name="clock" d="M637.947 192.988l23.322 23.578-163.579 161.889-0.968 201.242-31.59-0.148 1.019-216.653 171.796-169.907zM779.781 649.011c-32.968 35.881-72.371 64.358-117.13 84.669-48.942 22.252-102.231 33.428-155.612 32.717v91.203l-178.176-102.892 178.171-102.789v84.874c49.147 0.717 98.299-9.544 143.36-30.008 167.864-76.355 242.324-274.99 165.975-442.803-37.002-81.306-103.352-143.36-187.003-174.653-83.651-31.334-174.495-28.273-255.8 8.678-121.011 55.071-197.919 176.538-195.983 309.54l-29.553 0.461c-2.145-144.691 81.608-276.925 213.284-336.845 44.708-20.311 92.124-31.288 140.815-32.666 3.318-0.051 6.584-0.102 9.851-0.102 43.638 0 86.559 7.808 127.744 23.168 44.15 16.589 84.214 41.236 118.815 73.032 35.876 32.968 64.41 72.422 84.721 117.181 20.311 44.708 31.288 92.068 32.614 140.759 1.172 47.007-6.477 93.348-23.020 137.595-16.676 44.262-41.18 84.229-73.073 118.881z" />
<glyph unicode="&#xe91f;" glyph-name="code" d="M502.697 68.101h403.763v-28.211h-403.763v28.211zM494.29 248.955h420.588v-28.211h-420.588v28.211zM497.004 857.58h28.211v-267.904h-28.211v267.904zM110.612 466.166h807.526v-28.211h-807.526v28.211zM134.072 278.134h211.523v-211.523h-211.523v211.523zM105.861 38.4h267.945v267.945h-267.945v-267.945zM888.151 617.866h-211.523v211.523h211.523v-211.523zM916.362 857.6h-267.945v-267.945h267.945v267.945zM345.595 617.866h-211.523v211.523h211.523v-211.523zM373.806 857.6h-267.945v-267.945h267.945v267.945z" />
<glyph unicode="&#xe920;" glyph-name="coupon" d="M593.812 647.316l-61.665-113.423c-16.394-30.761-26.44-51.2-30.136-61.317h-1.044c-10.813 24.622-41.436 82.867-91.73 174.735h-57.964l107.771-184.991h-88.376v-40.878h103.516v-56.361h-103.516v-41.436h103.516v-82.033h51.41v82.099h99.891v41.436h-99.891v56.294h99.891v40.878h-85.734l108.82 184.991h-54.758zM899.092 606.392v-35.953c-22.707-7.373-38.339-28.032-38.339-52.234 0-24.151 15.585-44.815 38.339-52.234v-35.953c-22.707-7.419-38.339-28.083-38.339-52.234 0-24.202 15.585-44.861 38.339-52.28v-35.953c-22.707-7.373-38.339-28.032-38.339-52.285 0-24.151 15.585-44.815 38.339-52.234v-32.266h-774.185v32.266c22.707 7.368 38.339 28.032 38.339 52.234s-15.636 44.861-38.339 52.285v35.901c22.707 7.368 38.339 28.032 38.339 52.28 0 24.151-15.636 44.815-38.339 52.234v35.901c9.411 3.036 17.577 8.315 23.9 15.488l4.332 6.124c2.043 2.836 4.28 6.026 5.924 10.056 2.739 6.671 4.132 13.645 4.132 20.613s-1.393 13.942-4.081 20.516c-1.644 4.086-3.886 7.219-5.878 10.010l-4.332 6.124c-6.426 7.322-14.592 12.595-24.003 15.636v35.953c22.707 7.419 38.339 28.083 38.339 52.234 0 24.202-15.636 44.867-38.339 52.234v32.317h774.236v-32.317c-22.707-7.368-38.339-28.032-38.339-52.234 0-24.146 15.59-44.81 38.292-52.229zM911.99 690.893l9.559 1.444v73.298h-819.149v-73.298l9.559-1.444c16.63-2.488 28.728-16.082 28.728-32.266s-12.052-29.778-28.728-32.266l-9.559-1.444v-73.047l9.559-1.393c8.166-1.244 15.135-4.879 20.367-11.054 0.599-0.896 1.147-1.741 2.637-3.835 1.444-1.992 2.637-3.686 3.287-5.33 1.644-3.983 2.442-7.916 2.442-12.047 0-4.086-0.845-8.115-2.488-12.15-0.645-1.592-1.894-3.338-4.132-6.472-0.599-0.896-1.147-1.792-1.992-3.185-4.982-5.678-11.95-9.308-20.116-10.506l-9.564-1.449v-72.996l9.559-1.444c16.681-2.488 28.78-16.082 28.78-32.266 0-16.23-12.099-29.824-28.728-32.266l-9.559-1.444v-72.996l9.559-1.444c16.63-2.488 28.728-16.036 28.728-32.266 0-16.184-12.099-29.778-28.728-32.215l-9.559-1.444v-73.298h819.149v73.298l-9.559 1.444c-16.63 2.488-28.728 16.036-28.728 32.215 0 16.23 12.099 29.824 28.728 32.266l9.559 1.444v72.996l-9.559 1.444c-16.63 2.488-28.728 16.031-28.728 32.266 0 16.184 12.099 29.778 28.728 32.266l9.559 1.444v72.996l-9.559 1.444c-16.63 2.488-28.728 16.082-28.728 32.266s12.099 29.824 28.728 32.266l9.559 1.444v73.047l-9.559 1.444c-16.63 2.488-28.728 16.082-28.728 32.266s12.047 29.824 28.677 32.266z" />
<glyph unicode="&#xe921;" glyph-name="cross" d="M895.171 857.595l-383.171-383.16-383.171 383.16-26.429-26.429 383.171-383.165-383.171-383.165 26.429-26.429 383.171 383.16 383.171-383.16 26.429 26.429-383.171 383.165 383.171 383.165z" />
<glyph unicode="&#xe922;" glyph-name="delete" d="M531.446 190.387v419.814c0 10.552-8.745 19.082-19.507 19.082-10.757 0-19.502-8.535-19.502-19.082v-419.809c0-10.532 8.745-19.082 19.502-19.082 10.762-0.005 19.507 8.545 19.507 19.077zM902.098 781.942h-224.599l-71.946 70.4c-4.122 4.029-9.554 5.996-14.956 5.914-0.21 0.005-0.42 0.015-0.645 0.015h-156.012c-0.195 0-0.379-0.010-0.573-0.015-5.386 0.077-10.803-1.884-14.909-5.908l-71.956-70.405h-224.599c-10.762 0-19.502-8.53-19.502-19.082 0-10.527 8.74-19.077 19.502-19.077h234.025c0.328 0 0.655 0.005 0.978 0.020 5.468-0.138 10.982 1.818 15.155 5.893l71.946 70.41h135.982l71.951-70.41c4.173-4.081 9.682-6.036 15.15-5.893 0.328-0.015 0.65-0.020 0.978-0.020h234.025c10.762 0 19.502 8.55 19.502 19.077 0.010 10.552-8.735 19.082-19.497 19.082zM687.462 190.387v419.814c0 10.552-8.74 19.082-19.502 19.082s-19.507-8.535-19.507-19.082v-419.809c0-10.532 8.745-19.082 19.507-19.082 10.767-0.005 19.502 8.545 19.502 19.077zM375.434 190.387v419.814c0 10.552-8.745 19.082-19.502 19.082-10.767 0-19.507-8.535-19.507-19.082v-419.809c0-10.532 8.745-19.082 19.507-19.082 10.757-0.005 19.502 8.545 19.502 19.077zM843.479 648.361c-10.757 0-19.502-8.535-19.502-19.077v-515.226c0-21.059-17.469-38.17-39.009-38.17h-546.053c-21.54 0-39.009 17.111-39.009 38.17v515.226c0 10.542-8.74 19.077-19.502 19.077-9.068 0-16.707-6.062-18.883-14.285-0.205 0.113-0.42 0.21-0.62 0.328v-520.351c0-42.153 34.908-76.334 78.008-76.334h546.058c43.080 0 78.013 34.176 78.013 76.334v515.231c0.005 10.547-8.74 19.077-19.502 19.077z" />
<glyph unicode="&#xe923;" glyph-name="done" d="M523.238 426.819c8.253 0 16.466 3.062 22.769 9.165l347.11 337.746c12.554 12.227 19.139 30.182 6.584 42.409s-20.7 14.111-33.26 1.879l-343.204-334.428-185.149 180.71c-12.554 12.227-22.584 11.29-35.139-0.942-12.554-12.227-4.086-31.099 8.468-43.325l189.107-184.044c6.252-6.103 14.505-9.17 22.712-9.17zM903.685 574.049c16.809 0 17.966-13.619 17.966-30.433v-372.608c0-80.154-49.567-132.608-129.628-132.608h-544.492c-80.020 0-145.188 52.454-145.188 132.603v545.234c0.005 80.22 65.167 141.363 145.188 141.363h311.245c16.809 0 30.413-1.137 30.413-17.966s-13.594-12.324-30.413-12.324h-339.471c-40.074 0-92.308-70.948-92.308-111.068v-545.27c0-40.033 61.645-102.318 101.724-102.318h583.060c40.054 0 77.701 50.053 77.701 90.081v384.855c0 16.84-2.606 30.459 14.203 30.459z" />
<glyph unicode="&#xe924;" glyph-name="down" d="M921.6 651.494l-408.791-433.613-410.409 433.562 28.18 26.675 382.172-403.784 380.667 403.732z" />
<glyph unicode="&#xe925;" glyph-name="exit" d="M675.84 798.592v-1.475c-19.917-1.172-35.743-17.833-35.743-38.41s15.846-37.263 35.743-38.41v-0.517c97.859-56.689 163.84-162.273 163.84-283.489 0-180.972-146.708-327.68-327.68-327.68s-327.68 146.708-327.68 327.68c0 121.216 65.981 226.801 163.84 283.489v0.302c20.127 0 36.444 17.295 36.444 38.62s-16.317 38.63-36.444 38.63v1.265c-137.928-62.469-234.056-201.006-234.056-362.296 0-219.761 178.14-397.901 397.896-397.901s397.896 178.14 397.896 397.896c0 161.29-96.128 299.827-234.056 362.296zM523.704 436.296c19.379 0 35.108 17.669 35.108 39.511v342.287c0 21.837-15.729 39.511-35.108 39.511-19.405 0-35.108-17.669-35.108-39.511v-342.308c0-21.816 15.703-39.491 35.108-39.491z" />
<glyph unicode="&#xe926;" glyph-name="eyeclose" d="M875.197 538.967c3.241 3.241 6.697 6.272 9.887 9.569 9.569 9.83 18.867 19.825 27.535 30.454-0.159-0.159 8.98 12.436 8.98 14.51 0 4.465-11.003 8.079-24.663 8.079-13.501 0-24.34-13.184-26.522-17.060-3.722-6.646-14.029-22.164-22.589-30.669-46.828-46.72-98.54-90.143-156.211-120.97-36.884-19.717-76.324-35.558-117.146-43.264-44.913-8.346-89.928-7.921-134.63 2.017-77.389 17.116-148.982 57.933-208.722 110.874-67.604 59.899-77.123 81.638-77.44 81.956-3.773 3.932-18.975 17.116-26.629 17.116-13.609 0-25.457-3.666-24.607-8.079 0.108-0.374 10.204-16.369 8.663-14.51 13.66-16.957 28.805-32.845 44.539-47.995l-32.102-31.892c-6.164-6.164-6.164-16.21 0-22.374 6.221-6.221 16.266-6.221 22.482 0l33.27 33.111c6.856-6.113 13.553-12.544 20.567-18.391 33.485-27.904 69.417-53.468 107.418-74.624-0.481-0.742-1.331-0.799-1.7-1.649l-21.1-45.978c-3.825-8.453-1.541-19.241 5.156-24.182 6.646-4.89 15.309-1.966 19.133 6.482l21.1 45.921c1.167 2.55 0.742 5.366 0.85 8.079 32.369-16 65.802-29.496 100.987-37.258 21.366-4.782 42.839-7.229 64.312-8.079 0-0.425-0.425-0.691-0.425-1.116v-48.42c0-9.037 7.281-16.21 16.317-16.21s16.369 7.173 16.369 16.21v48.42c0 0.481-0.476 0.742-0.476 1.167 17.802 0.799 35.61 2.391 53.417 5.688 40.182 7.603 78.93 22.538 115.814 40.98-0.64-3.564-0.584-7.388 1.434-10.737l24.499-41.989c4.572-7.706 14.561-10.312 22.431-5.847 7.762 4.516 10.527 14.403 5.898 22.108l-24.607 41.989c-1.807 3.133-4.89 4.731-7.921 6.006 47.78 26.578 92.483 60.165 133.089 97.905 0.108-0.051 0.051-0.108 0.108-0.159l34.708-34.284c6.38-6.323 16.794-6.323 23.173 0 6.431 6.323 6.431 16.527 0 22.856l-34.647 34.237z" />
<glyph unicode="&#xe927;" glyph-name="eyeon" d="M921.6 448c0-76.769-168.96-245.663-409.6-245.663-235.52 0-409.6 163.773-409.6 245.663s174.080 245.663 409.6 245.663c240.64 0 409.6-163.773 409.6-245.663v0 0zM512 647.598c-107.52 0-194.56-87.004-194.56-199.598s87.040-199.598 199.68-199.598c107.52 0 199.68 92.124 199.68 199.598-5.12 112.594-97.28 199.598-204.8 199.598v0 0zM512 575.949c-71.68 0-128-56.3-128-127.949s56.32-127.949 128-127.949c71.68 0 128 56.3 128 127.949s-56.32 127.949-128 127.949v0 0z" />
<glyph unicode="&#xe928;" glyph-name="home" d="M818.099 180.813c0-56.238-51.41-103.839-107.694-103.839h-396.58c-56.289 0-107.694 47.606-107.694 103.839v337.382l306.109 290.355 305.853-288.338c0.005-49.638 0.005-289.060 0.005-339.4zM932.214 467.333l-408.484 385.618c-6.543 6.2-16.415 6.2-22.958 0l-409.482-389.335c-7.188-6.81-8.069-18.719-1.546-26.291 6.431-7.465 20.49-10.122 31.442 0.302l44.37 42.086v-308.193c0-66.452 68.577-133.12 139.489-133.12h414.136c70.912 0 139.489 66.668 139.489 133.12v310.441l46.249-43.602c10.363-8.822 23.475-5.074 29.809 2.673 6.344 7.721 4.675 19.492-2.514 26.301z" />
<glyph unicode="&#xe929;" glyph-name="lamp" d="M791.501 673.772c14.106-33.106 22.267-64.256 24.428-93.537 2.171-29.276 0.548-56.325-4.89-80.952-5.437-24.75-13.297-46.817-23.619-66.319-10.322-19.512-20.997-36.628-32.097-51.282-11.126-14.556-21.586-26.721-31.319-36.168-9.764-9.513-16.558-15.826-20.316-19.098-5.499-4.915-10.511-8.571-15.104-10.967-4.603-2.488-8.673-4.495-12.196-6.077-3.533-1.69-6.892-3.589-10.158-5.791-3.261-2.14-6.538-5.663-9.764-10.552-6.994-10.291-12.462-20.316-16.246-30.054-3.82-9.738-7.112-19.318-9.764-28.477-2.744-7.634-5.693-13.844-8.96-18.734-3.267-4.884-6.758-9.19-10.619-13.036-4.27-4.332-8.632-7.864-13-10.552h-178.959c-4.367 2.688-8.412 6.211-12.196 10.552-3.82 3.85-7.603 8.699-11.412 14.623-3.825 5.99-7.055 13.624-9.738 22.804-5.407 15.754-12.073 28.314-19.973 37.821-7.854 9.544-18.012 18.898-30.474 28.088-8.699 6.502-18.58 15.206-29.67 26.010-11.167 10.906-22.134 23.583-32.963 38.241-10.87 14.623-21.161 31.032-30.935 49.208-9.764 18.217-17.654 38.175-23.619 59.817-5.955 21.683-9.477 44.877-10.542 69.535-1.096 24.714 1.362 50.57 7.342 77.676 9.16 43.418 25.165 79.944 47.974 109.45 22.774 29.604 48.276 53.253 76.488 71.178 28.155 17.859 57.359 30.802 87.414 38.666 30.131 7.875 57.405 11.756 81.756 11.756 25.492 0 52.086-3.523 79.749-10.552 27.663-7.055 54.318-17.992 80.143-32.963 25.723-14.884 49.362-33.94 70.794-56.94 21.422-23.071 38.897-50.836 52.444-83.374v0zM614.984 141.742v-8.929c0-2.755 0.133-5.693 0.384-8.96 0.328-3.302 0.425-6.497 0.425-9.774-0.543-10.312-3.4-21.612-8.571-33.741-5.151-12.206-15.017-21.064-29.64-26.501-6.011-2.074-13.691-5.212-23.235-9.288-9.477-4.070-23.726-6.144-42.706-6.144-16.271 0-29.706 1.9-40.279 5.693-10.583 3.82-18.801 6.211-24.812 7.342-7.567 1.587-13.691 5.012-18.309 10.158-4.562 5.176-8.12 10.967-10.552 17.5-2.458 6.502-3.948 13.138-4.434 19.932-0.584 6.799-0.87 12.877-0.87 18.319v25.231l202.598-0.84z" />
<glyph unicode="&#xe92a;" glyph-name="line" d="M900.859 427.259h-777.718c-11.453 0-20.741 9.283-20.741 20.741 0 11.453 9.288 20.741 20.741 20.741h777.723c11.453 0 20.741-9.283 20.741-20.741-0.005-11.453-9.288-20.741-20.746-20.741z" />
<glyph unicode="&#xe92b;" glyph-name="link" d="M545.326 271.493c-53.734 0-107.51 20.465-148.398 61.358-8.422 8.422-8.422 22.067 0 30.49s22.067 8.422 30.49 0c65.019-65.019 170.844-65.019 235.863 0l166.467 166.508c65.019 65.019 65.019 170.803 0 235.822-64.978 64.978-170.803 65.019-235.863 0l-83.251-83.21c-8.422-8.422-22.067-8.422-30.49 0s-8.422 22.067 0 30.49l83.251 83.21c81.864 81.864 214.979 81.864 296.842 0 81.823-81.823 81.823-214.979 0-296.801l-166.467-166.508c-40.934-40.893-94.71-61.358-148.444-61.358v0zM312.284 38.446c-53.734 0-107.51 20.465-148.398 61.358-39.675 39.67-61.486 92.349-61.486 148.439 0 56.049 21.811 108.774 61.481 148.398l166.467 166.467c39.629 39.67 92.349 61.481 148.398 61.481 56.095 0 108.774-21.811 148.444-61.481 8.422-8.422 8.422-22.067 0-30.49s-22.067-8.422-30.49 0c-62.996 62.996-172.867 62.996-235.863 0l-166.467-166.467c-31.498-31.498-48.85-73.359-48.85-117.914s17.352-86.456 48.85-117.955c65.019-65.019 170.844-65.019 235.863 0l83.21 83.251c8.422 8.422 22.067 8.422 30.49 0s8.422-22.067 0-30.49l-83.21-83.256c-40.929-40.873-94.705-61.343-148.439-61.343v0z" />
<glyph unicode="&#xe92c;" glyph-name="list" d="M159.232 544.031c11.761 0 23.516 0 31.355-7.839 11.761-7.839 19.599-23.516 19.599-39.199 0-31.355-23.516-47.037-47.037-47.037-23.516 3.922-43.116 23.516-43.116 47.037 0.005 27.438 15.683 43.116 39.199 47.037v0 0zM280.745 520.515h623.217v-47.037h-623.217v47.037zM159.232 700.815c11.761 0 23.516 0 31.355-7.839 11.761-7.839 19.599-23.516 19.599-39.199 0-31.355-23.516-47.037-47.037-47.037-23.516 3.922-43.116 23.516-43.116 47.037 0.005 27.438 15.683 43.116 39.199 47.037v0 0zM280.745 677.299h623.217v-47.037h-623.217v47.037zM159.232 857.6c11.761 0 23.516 0 31.355-7.839 11.761-7.839 19.599-23.516 19.599-39.199 0-31.355-23.516-47.037-47.037-47.037-23.516 3.922-43.116 23.516-43.116 47.037 0.005 27.438 15.683 43.116 39.199 47.037v0 0zM280.745 834.084h623.217v-47.037h-623.217v47.037zM319.939 336.292c-3.922 0-7.839-3.922-11.761-7.839-3.922-3.922-3.922-7.839-7.839-15.677s-11.761-19.599-19.599-31.355c-7.839-11.761-15.677-23.516-23.516-35.277s-19.599-23.516-27.438-35.277c-7.839-11.761-19.599-19.599-27.438-31.355-3.922 7.839-7.839 11.761-11.761 15.677-3.922 3.922-11.761 7.839-15.677 11.761 19.599 11.761 35.277 27.438 47.037 43.116s23.516 31.355 35.277 47.037c7.839 11.761 11.761 19.599 15.677 31.355 3.922 11.761 7.839 19.599 11.761 27.438 0-3.922 3.922-3.922 7.839-3.922 3.922 0 7.839-3.922 11.761-3.922s7.839-3.922 7.839-3.922c3.922 0 3.922 0 7.839 0s3.922 0 3.922-3.922c0-3.917-3.922-3.917-3.922-3.917zM288.584 191.263c-3.922 0-11.761 0-15.677 0-3.922 0-7.839 0-11.761 0s-7.839 0-11.761 0c-3.922 0-7.839 0-11.761 0v31.355c3.922 0 15.677 0 27.438-3.922 11.761 0 27.438 0 47.037 0 11.761 0 23.516 0 35.277 0s23.516 0 35.277 0 19.599 0 27.438 0c7.839 0 15.677 0 19.599 0l-11.761-137.185c0-7.839-3.922-11.761-3.922-19.599-3.922-3.922-3.922-7.839-11.761-11.761-3.922-3.922-11.761-3.922-19.599-7.839-3.922 0-15.677 0-27.438-3.922 0 7.839-3.922 11.761-3.922 19.599-3.922 7.839-7.839 11.761-11.761 19.599 11.761 0 19.599 0 23.516 0 7.839 0 11.761 0 15.677 3.922 3.922 3.922 7.839 3.922 7.839 11.761 0 3.922 3.922 11.761 3.922 19.599l7.839 82.314h-78.382c0-15.677-3.922-31.355-7.839-47.037-3.922-15.677-11.761-31.355-15.677-39.199-3.922-7.839-11.761-15.677-15.677-23.516-3.922-7.839-11.761-11.761-15.677-19.599-3.922-3.922-11.761-11.761-19.599-15.677s-11.761-7.839-19.599-11.761c-3.922 3.922-7.839 7.839-15.677 11.761-3.922 3.922-11.761 7.839-19.599 11.761 19.599 7.839 35.277 15.677 47.037 27.438s23.516 19.599 27.438 27.438c7.839 11.761 11.761 23.516 15.677 31.355 7.839 15.683 7.839 27.438 7.839 43.116zM496.323 226.54c-7.839-7.839-19.599-19.599-27.438-35.277-31.355 23.516-54.876 47.037-74.47 70.554-7.839 11.761-15.677 23.516-23.516 39.199-3.922 19.599-11.761 35.277-15.677 50.954l31.355 7.839c3.922-15.677 7.839-31.355 15.677-47.037 7.839-11.761 11.761-23.516 19.599-31.355 11.761-11.761 23.516-23.516 35.277-31.355 11.756-11.761 27.433-15.677 39.194-23.521zM719.739 136.392c7.839-7.839 11.761-19.599 19.599-23.516 7.839-3.922 15.677-11.761 23.516-15.677 7.839-3.922 19.599-7.839 31.355-7.839s27.438-3.922 43.116-3.922c-7.839-11.761-11.761-23.516-11.761-35.277-19.599 3.922-39.199 7.839-50.954 11.761-15.677 3.922-27.438 11.761-35.277 15.677-7.839 3.922-19.599 15.677-23.516 23.516-7.839 7.839-11.761 19.599-19.599 35.277h-11.761c-3.922-3.922-3.922-11.761-7.839-15.677-3.922-3.922-3.922-7.839-7.839-11.761-11.761-11.761-23.516-23.516-43.116-35.277s-43.116-19.599-70.554-27.438c0 3.922-3.922 11.761-7.839 15.677s-7.839 7.839-11.761 15.677c7.839 0 15.677 0 23.516 3.922 7.839 0 15.677 3.922 23.516 7.839 7.839 3.922 15.677 3.922 23.516 7.839 7.839 3.922 11.761 7.839 19.599 11.761 7.839 7.839 15.677 11.761 19.599 15.677 3.922 3.922 7.839 11.761 11.761 15.677-27.438 0-47.037 0-70.554 0s-39.199 0-50.954-3.922v31.355c15.677 0 35.277-3.922 54.876-3.922s47.037 0 74.47 0c0 3.922 0 11.761 0 15.677 0 7.839 0 11.761 0 15.677 3.922 0 11.761-3.922 15.677-3.922 7.839 0 11.761 0 19.599 0 3.922 0 3.922 0 3.922 0s0-3.922-3.922-3.922c0 0-3.922 0-3.922-3.922s-3.922-3.922-3.922-3.922c0-3.922-3.922-3.922-3.922-7.839 0-3.922 0-3.922-3.922-7.839 31.355 0 58.793 0 82.314 0 23.516 0 43.116 0 58.793 3.922v-31.355c-15.677 0-31.355 3.922-50.954 3.922-7.823-3.907-31.345-3.907-54.861-3.907zM668.785 261.816c-7.839-11.761-15.677-23.516-19.599-31.355-7.839-7.839-15.677-15.677-23.516-23.516s-15.677-15.677-27.438-19.599c-11.761-3.922-19.599-11.761-31.355-15.677-3.922 3.922-7.839 7.839-11.761 11.761s-7.839 7.839-15.677 11.761c23.516 7.839 43.116 19.599 58.793 27.438s31.355 23.516 43.116 43.116c-23.516 0-43.116 0-58.793 0s-31.355 0-47.037-3.922v31.355c15.677 0 35.277-3.922 54.876-3.922s47.037 0 74.47 0v35.277c0 7.839 0 11.761 0 19.599s0 15.677-3.922 19.599c7.839 0 11.761 0 15.677-3.922 3.922 0 11.761 0 15.677 0s3.922 0 3.922 0 0-3.922-3.922-3.922l-3.922-3.922v-58.798c27.438 0 54.876 0 74.47 0 23.516 0 39.199 0 54.876 3.922v-31.355c-15.677 0-35.277 3.922-54.876 3.922-23.516 0-47.037 0-74.47 0 0-11.761 0-23.516 0-31.355s0-19.599 0-31.355h-19.599c0 11.761 0 23.516 0 31.355 0 11.761 0 19.599 0 31.355v0-7.839zM617.83 293.176c-7.839 7.839-11.761 11.761-19.599 19.599-7.839 3.922-15.677 11.761-23.516 19.599l23.516 15.677c7.839-7.839 15.677-11.761 23.516-15.677 7.839-3.922 15.677-11.761 23.516-15.677l-27.433-23.521zM805.97 179.507c-11.761 7.839-23.516 19.599-39.199 27.438-15.677 7.839-31.355 15.677-50.954 23.516l19.599 15.677c15.677-7.839 35.277-15.677 47.037-19.599 15.677-7.839 31.355-15.677 47.037-23.516l-23.521-23.516zM802.053 332.37c0 0-3.922 0-3.922-3.922-3.922 0-3.922-3.922-7.839-3.922-3.922 0-7.839-7.839-15.677-11.761-3.922-3.922-11.761-11.761-23.516-19.599-7.839 3.922-15.677 11.761-23.516 11.761 11.761 7.839 19.599 15.677 23.516 23.516 7.839 7.839 11.761 15.677 19.599 23.516 11.761-7.839 19.599-11.761 27.438-15.677 7.834 0.010 7.834-3.912 3.917-3.912z" />
<glyph unicode="&#xe92d;" glyph-name="list-not" d="M272.138 194.78h649.462v-47.8h-650.394v44.969c-0.082 1.311-0.159 2.657 0.932 2.831zM145.623 218.209c29.292 3.108 53.233-19.292 53.422-46.858 0.21-30.638-25.175-49.772-50.611-48.742-27.351 1.101-46.106 23.88-45.921 48.742 0.205 26.906 18.391 44.186 43.11 46.858zM272.138 459.986h649.462v-47.8h-650.394v44.979c-0.082 1.311-0.159 2.662 0.932 2.821zM143.749 483.42c11.786 1.72 26.056-1.551 33.741-6.548 10.388-6.799 21.524-23.962 21.555-40.31 0.061-31.212-25.426-48.568-47.795-48.742-27.648-0.2-47.252 21.96-48.732 44.979-1.766 27.438 17.080 47.099 41.231 50.621zM272.138 749.578h649.462v-47.8h-650.394v44.979c-0.082 1.352-0.159 2.662 0.932 2.821zM144.681 773.007c28.887 3.768 54.159-18.058 54.359-46.858 0.2-29.123-23.747-48.579-47.795-48.742-27.643-0.21-47.217 21.422-48.732 44.969-1.695 26.342 16.087 47.232 42.168 50.632z" />
<glyph unicode="&#xe92e;" glyph-name="local" d="M512.005 699.361c-74.593 0-135.286-53.453-135.286-119.142 0-65.7 60.692-119.148 135.286-119.148 74.578 0 135.245 53.448 135.245 119.148 0 65.69-60.677 119.142-135.245 119.142zM512.005 431.677c-93 0-168.668 66.621-168.668 148.541 0 81.9 75.674 148.536 168.668 148.536 92.979 0 168.627-66.637 168.627-148.536-0.010-81.91-75.648-148.541-168.627-148.541zM512.005 38.4c-50.821 0-191.939 197.632-193.331 199.629-44.529 62.577-148.009 218.947-148.009 318.966-0.005 165.755 153.119 300.605 341.34 300.605 68.193 0 134.047-17.674 190.413-51.103 7.639-4.526 9.667-13.66 4.531-20.398-5.161-6.728-15.529-8.509-23.153-3.973-50.852 30.152-110.259 46.080-171.786 46.080-169.82 0-307.973-121.672-307.973-271.217 0-155.756 266.588-473.83 308.618-489.047 48.23 12.155 307.302 339.041 307.302 489.047 0 50.15-15.647 99.133-45.286 141.655-4.808 6.912-2.34 15.964 5.514 20.209 7.849 4.255 18.12 2.079 22.958-4.833 32.824-47.14 50.196-101.443 50.196-157.025 0-101.094-101.796-256.696-145.541-318.915-5.76-8.146-141.128-199.68-195.794-199.68z" />
<glyph unicode="&#xe92f;" glyph-name="lock" d="M825.692 561.336h-104.509v87.081c0 55.885-21.755 108.416-61.256 147.922s-92.042 61.261-147.927 61.261-108.416-21.755-147.922-61.256-61.261-92.042-61.261-147.927v-87.086h-104.509c-9.656 0-17.48-7.828-17.48-17.48v-487.977c0-9.651 7.823-17.48 17.48-17.48h627.384c9.656 0 17.48 7.828 17.48 17.48v487.982c0 9.646-7.823 17.48-17.48 17.48zM337.777 648.417c0 46.551 18.12 90.301 51.026 123.208 32.896 32.896 76.646 51.016 123.197 51.016s90.301-18.12 123.197-51.016c32.906-32.906 51.026-76.657 51.026-123.208v-87.086h-348.447v87.086zM808.212 73.359h-592.425v453.018h592.425v-453.018zM564.28 334.725c0-15.437-6.81-29.158-17.428-38.717v-48.42c0-19.256-15.611-34.862-34.857-34.862s-34.857 15.611-34.857 34.862v48.42c-10.619 9.559-17.428 23.281-17.428 38.717 0 28.877 23.404 52.28 52.28 52.28 28.897 0.005 52.291-23.404 52.291-52.28z" />
<glyph unicode="&#xe930;" glyph-name="member" d="M633.221 334.085c-42.532 10.225-63.555 65.987-25.974 105.554 50.401 48.415 83.927 130.964 83.927 213.181 0 127.268-80.195 204.78-179.133 204.78-99.021 0-179.21-77.512-179.21-204.78 0-81.935 33.362-164.275 83.441-212.654h-0.323c38.39-39.772 16.963-96.261-26.061-106.286-166.548-32.138-287.488-124.221-287.488-193.091 0-84.859 183.352-102.39 409.641-102.39 226.212 0 409.559 17.531 409.559 102.39 0 69.028-121.344 161.234-288.379 193.295z" />
<glyph unicode="&#xe931;" glyph-name="men" d="M616.95 405.274c71.859 41.375 120.407 120.259 120.407 210.77 0 133.412-105.482 241.562-235.597 241.562s-235.602-108.16-235.602-241.567 105.482-241.562 235.597-241.562c2.826 0 5.637 0.051 8.443 0.154 0.558-0.097 1.162-0.154 1.802-0.154 198.712 0 368.763-130.698 368.763-294.651l-389.248 0.579-348.759-0.819c0.481 110.971 69.151 193.341 179.794 250.127 10.117 5.192 14.213 17.812 9.149 28.186s-17.372 14.572-27.489 9.38c-123.853-63.57-201.943-179.528-201.943-307.876v-21.002h819.471v21.002c0 161.951-128.952 307.876-304.788 345.871zM501.755 416.486c-107.489 0-194.627 89.344-194.627 199.547 0 110.208 87.137 199.547 194.627 199.547s194.627-89.344 194.627-199.547-87.137-199.547-194.627-199.547z" />
<glyph unicode="&#xe932;" glyph-name="money" d="M594.739 637.235l-67.994-138.445c-5.734-10.65-9.83-21.299-13.107-31.13h-0.819c-4.915 12.288-9.011 22.118-13.107 29.491l-67.174 140.083h-56.525l96.666-179.405h-79.462v-39.322h93.389v-54.886h-93.389v-40.141h93.389v-79.462h49.152v79.462h90.931v40.141h-90.112v54.886h90.931v39.322h-77.005l96.666 179.405c0 0-52.429 0-52.429 0zM512 71.168c-208.077 0-376.832 168.755-376.832 376.832s168.755 376.832 376.832 376.832 376.832-168.755 376.832-376.832-169.574-376.832-376.832-376.832zM512 857.6c-226.099 0-409.6-183.501-409.6-409.6s183.501-409.6 409.6-409.6 409.6 183.501 409.6 409.6-183.501 409.6-409.6 409.6z" />
<glyph unicode="&#xe933;" glyph-name="msg" d="M835.308 525.686c0 175.8-164.408 318.822-366.454 318.822-202.071 0-366.454-143.027-366.454-318.822 0-105.385 59.156-202.865 158.792-262.564v-102.733c0-6.252 3.441-11.981 8.945-14.95 2.514-1.382 5.279-2.038 8.038-2.038 3.282 0 6.543 0.952 9.375 2.811l46.771 30.894c0.768 0.497 1.495 1.085 2.176 1.7l53.724 35.784c26.588-5.094 53.023-7.68 78.679-7.68 202.004 0.020 366.408 143.022 366.408 318.776v0zM468.833 240.901c-25.595 0-52.091 2.811-78.797 8.356-4.419 0.952-9.057 0.020-12.867-2.493l-61.901-41.221c-0.727-0.476-1.428-1.039-2.063-1.608l-18.074-11.935v80.922c0 6.139-3.308 11.802-8.627 14.792-94.013 53.043-150.139 142.029-150.139 237.993 0 157.092 149.14 284.851 332.483 284.851 183.316 0 332.483-127.785 332.483-284.851 0.005-157.046-149.161-284.805-332.498-284.805v0zM851.092 443.924c23.916-32.41 36.531-69.873 36.531-108.303 0-68.49-40.177-132.086-107.489-170.066-5.325-3.011-8.627-8.673-8.627-14.792v-50.688l-5.842 3.871c-0.543 0.476-1.178 0.952-1.787 1.382l-45.251 30.147c-3.784 2.534-8.448 3.466-12.887 2.493-79.544-16.599-156.524 1.516-213.939 44.575l-20.362-27.203c63.37-47.519 147.692-68.173 234.189-52.045l37.417-24.934c0.589-0.522 1.224-1.019 1.879-1.449l34.202-22.605c2.831-1.859 6.113-2.811 9.375-2.811 2.765 0 5.524 0.655 8.038 2.038 5.504 2.944 8.945 8.699 8.945 14.95v72.566c72.904 44.611 116.116 116.654 116.116 194.565 0 45.773-14.925 90.189-43.167 128.486l-27.341-20.178zM360.55 521.472c0-11.919-9.662-21.581-21.581-21.581s-21.581 9.662-21.581 21.581c0 11.919 9.662 21.581 21.581 21.581s21.581-9.662 21.581-21.581zM490.045 521.472c0-11.919-9.662-21.581-21.581-21.581s-21.581 9.662-21.581 21.581c0 11.919 9.662 21.581 21.581 21.581s21.581-9.662 21.581-21.581zM619.54 521.472c0-11.919-9.662-21.581-21.581-21.581s-21.581 9.662-21.581 21.581c0 11.919 9.662 21.581 21.581 21.581s21.581-9.662 21.581-21.581z" />
<glyph unicode="&#xe934;" glyph-name="ok" d="M458.153 245.949l20.818-19.891 467.323 406.845c13.133 11.433 14.5 31.334 3.052 44.457-11.448 13.117-31.375 14.484-44.513 3.052l-423.992-368.932-160.471 153.303c-12.59 12.027-32.558 11.587-44.605-0.988s-11.602-32.522 0.988-44.549l181.402-173.297zM747.986 754.652c-72.274 64.056-167.363 102.948-271.529 102.948-226.202 0-409.574-183.388-409.574-409.6s183.373-409.6 409.574-409.6c171.249 0 317.947 105.103 379.116 254.326l-0.036 0.133c-5.903 25.349-28.657 34.668-43.694 17.797 0 0 6.031 14.705 0 0-55.332-134.979-187.013-224.993-335.396-224.993-200.1 0-362.312 162.222-362.312 362.342s162.212 362.342 362.312 362.342c89.784 0 174.367-32.722 240.189-91.059 11.909-10.552 0 0 0 0 23.229-5.888 37.268 9.933 31.375 35.236l-0.026 0.128z" />
<glyph unicode="&#xe935;" glyph-name="open" d="M851.804 72.975c-40.146 0-72.827 29.768-72.827 66.335 0 36.603 32.666 66.355 72.827 66.355s72.842-29.788 72.842-66.355c-0.020-36.567-32.686-66.335-72.842-66.335zM584.34 139.331c0-36.582-32.666-66.335-72.827-66.335s-72.842 29.768-72.842 66.335c0 36.603 32.681 66.355 72.842 66.355 40.136 0 72.827-29.752 72.827-66.355zM395.044 716.334c0 58.87 52.511 106.68 117.064 106.68s117.059-47.811 117.059-106.68c0-58.798-52.49-106.665-117.059-106.665-64.532 0.005-117.064 47.867-117.064 106.665zM245.012 139.331c0-36.582-32.666-66.335-72.827-66.335-40.177 0-72.827 29.768-72.827 66.335 0 36.603 32.64 66.355 72.827 66.355 40.161 0 72.827-29.752 72.827-66.355zM873.508 238.321l-6.006 1.101-1.884 5.304c-17.92 49.915-45.998 92.718-83.476 127.324-31.724 29.271-70.2 52.669-114.36 69.576-54.231 20.762-103.194 26.46-127.57 27.986l-9.748 0.614v94.239c0 0.712-0.087 1.454-0.164 2.156l-1.29 9.027 9.825 1.567c74.281 11.878 128.164 70.359 128.164 139.116 0.031 77.896-69.478 141.271-154.921 141.271s-154.941-63.37-154.941-141.266c0-68.234 53.432-126.679 127.119-138.906l9.687-1.623-1.172-8.914c-0.123-0.84-0.205-1.638-0.205-2.458v-94.203l-9.769-0.614c-24.468-1.51-73.641-7.188-128.082-28.017-44.155-16.906-82.637-40.31-114.36-69.591-37.56-34.591-65.679-77.522-83.553-127.606l-1.884-5.192-5.878-1.172c-50.739-9.933-87.583-51.436-87.583-98.729 0-55.649 49.684-100.905 110.751-100.905 61.025 0 110.71 45.256 110.71 100.905 0 44.426-31.252 83.149-77.804 96.369l-10.629 3.021 3.891 9.457c31.089 75.182 87.921 129.265 168.955 160.896 47.718 18.524 91.771 24.151 113.828 25.841l11.366 0.87v-196.659l-7.946-1.843c-49.357-11.249-83.84-51.517-83.84-97.91 0-55.649 49.684-100.905 110.71-100.905 61.051 0 110.735 45.256 110.735 100.905 0 46.397-34.509 86.666-83.84 97.91l-7.905 1.807v196.68l11.366-0.87c21.361-1.638 64.266-7.112 111.324-25.114 82.248-31.468 139.812-85.96 171.11-161.971l3.85-9.364-10.424-3.092c-45.809-13.558-76.57-52.127-76.57-96.010 0-55.649 49.684-100.905 110.71-100.905 61.066 0.015 110.751 45.281 110.751 100.931 0 47.933-37.437 89.564-89.047 98.97z" />
<glyph unicode="&#xe936;" glyph-name="pen" d="M838.456 121.595h83.144v-83.2h-83.144v83.2zM669.030 121.595h83.144v-83.2h-83.144v83.2zM499.671 121.595h83.144v-83.2h-83.144v83.2zM187.3 299.208c3.686 3.763 12.421 12.621 26.004 26.624 13.655 13.978 30.72 31.334 51.133 51.866l343.224 344.781 173.937-175.642-199.946-200.934-74.404-75.699c-24.776-24.294-47.099-46.566-66.964-66.821-19.866-20.275-36.244-36.941-49.285-49.971-13.036-13.107-20.751-20.562-23.281-22.451-6.211-5.606-13.312-11.546-21.366-17.766-8.054-6.195-16.451-11.187-25.119-14.95-8.668-4.352-21.366-9.626-38.159-15.898-16.727-6.221-34.268-12.288-52.562-18.227s-35.635-11.059-52.081-15.411c-16.451-4.372-28.672-7.168-36.726-8.397-16.722-1.838-27.919 0.614-33.516 7.424-5.596 6.835-7.096 18.381-4.644 34.534 1.229 8.755 4.168 21.299 8.806 37.837 4.644 16.512 9.626 33.638 14.884 51.379 5.253 17.766 10.373 34.125 15.355 49.075 4.987 14.95 9.011 25.267 12.083 30.874 3.753 8.73 7.916 16.64 12.559 23.808 4.705 7.301 11.397 15.237 20.065 23.967zM911.841 755.169c2.524-5.606 4.506-12.16 6.077-19.584 1.567-7.45 2.319-15.283 2.319-23.347 0-8.115-1.567-16.179-4.639-24.294-3.139-8.141-8.054-15.923-14.879-23.347-7.439-7.501-14.131-14.008-20.004-19.584-5.873-5.606-10.993-10.598-15.36-14.95-4.987-4.992-9.626-9.37-13.926-13.107l-173.932 174.746c7.439 6.81 16.251 15.078 26.486 24.755 10.24 9.626 18.77 17.28 25.6 22.886 8.668 6.81 17.679 11.674 26.962 14.464 9.288 2.79 18.432 4.019 27.443 3.763 9.011-0.358 17.679-1.715 26.076-4.25 8.397-2.458 15.631-5.325 21.842-8.397 13.036-6.81 27.438-18.842 43.274-35.968 15.698-17.203 27.986-35.149 36.659-53.786z" />
<glyph unicode="&#xe937;" glyph-name="phone" d="M870.4 515.784c-30.72 164.608-179.2 285.65-358.4 285.65s-327.68-125.88-358.4-285.65c-30.72-24.207-51.2-67.784-51.2-111.36 0-58.102 35.84-125.88 92.16-125.88 51.2 0 51.2 53.258 51.2 125.88 0 67.784 0 121.037-35.84 125.88 30.72 130.719 153.6 227.553 302.080 227.553 148.475 0 271.36-96.835 302.080-222.715-35.84-9.682-35.84-58.097-35.84-125.875 0-48.42 0-82.309 10.24-106.516-46.080-67.784-112.635-116.198-194.56-135.562-15.36 19.369-46.080 33.889-81.92 33.889-51.205 0-92.16-24.207-92.16-53.258s40.955-53.258 92.16-53.258c51.2 0 92.16 24.207 92.16 53.258 81.92 19.364 153.595 72.622 199.68 140.406 5.12-4.844 15.36-4.844 25.6-4.844 56.32 0 92.16 67.784 92.16 125.88 0 38.738-20.48 82.314-51.2 106.522v0z" />
<glyph unicode="&#xe938;" glyph-name="pop" d="M862.29 443.791c24.704-33.48 37.74-72.177 37.74-111.877 0-70.753-41.508-136.448-111.037-175.688-5.494-3.108-8.914-8.96-8.914-15.278v-52.362l-6.042 4.004c-0.558 0.492-1.219 0.983-1.853 1.428l-46.746 31.14c-3.901 2.616-8.724 3.579-13.312 2.57-82.166-17.147-161.69 1.567-221.005 46.044l-21.033-28.099c65.464-49.085 152.566-70.426 241.92-53.77l38.646-25.759c0.609-0.538 1.265-1.055 1.94-1.495l35.328-23.347c2.924-1.915 6.313-2.903 9.687-2.903 2.852 0 5.709 0.676 8.305 2.104 5.683 3.041 9.242 8.98 9.242 15.437v74.962c75.315 46.090 119.956 120.509 119.956 200.996 0 47.283-15.416 93.164-44.59 132.726l-28.232-20.833zM467.405 234.066c-26.44 0-53.811 2.903-81.398 8.632-4.557 0.983-9.359 0.026-13.292-2.57l-63.944-42.583c-0.753-0.492-1.469-1.075-2.125-1.659l-18.673-12.329v83.599c0 6.344-3.415 12.191-8.919 15.278-97.116 54.794-155.090 146.719-155.090 245.847 0 162.273 154.066 294.257 343.455 294.257 189.368 0 343.455-131.999 343.455-294.257 0.015-162.243-154.076-294.216-343.47-294.216zM845.983 528.251c0 181.606-169.83 329.349-378.547 329.349-208.748 0-378.557-147.748-378.557-329.349 0-108.867 61.107-209.556 164.029-271.232v-106.132c0-6.456 3.553-12.375 9.242-15.437 2.596-1.428 5.448-2.104 8.305-2.104 3.395 0 6.758 0.983 9.687 2.903l48.312 31.913c0.794 0.517 1.546 1.121 2.248 1.756l55.496 36.972c27.464-5.263 54.769-7.926 81.275-7.926 208.676 0.010 378.511 147.732 378.511 329.288z" />
<glyph unicode="&#xe939;" glyph-name="right" d="M308.506 857.6l433.613-408.791-433.562-410.409-26.675 28.18 403.784 382.177-403.732 380.662z" />
<glyph unicode="&#xe93a;" glyph-name="safe" d="M921.16 674.381c0 1.352-0.143 2.934-0.84 4.014-12.431 19.328-24.96 38.636-44.032 52.383-11.602 8.361-22.646 18.156-35.441 24.11-99.092 46.162-198.559 91.53-297.897 137.175-10.153 4.664-20.204 9.539-30.305 14.316h-1.705c-0.952-0.568-1.864-1.229-2.867-1.69-112.241-51.528-224.389-103.24-336.799-154.399-25.421-11.566-45.42-28.027-57.948-53.094-2.78-5.56-6.144-10.834-8.904-16.404-1.137-2.299-1.94-5.033-1.946-7.572-0.097-100.859-0.097-201.718-0.072-302.577 0.010-28.672 2.939-57.073 9.789-84.915 27.141-110.285 90.542-193.526 189.885-249.175 50.012-28.017 104.141-43.325 161.505-45.998 26.808-1.254 53.709-0.942 80.558-0.783 27.069 0.159 53.827 3.564 80.184 9.764 77.297 18.191 143.084 56.253 196.449 114.714 64.154 70.267 98.534 153.329 99.988 248.228 1.597 103.941 0.41 207.933 0.394 311.905v0zM869.827 372.28c-2.939-144.835-96.481-269.435-229.407-314.358-33.623-11.361-68.224-17.213-103.731-17.285-22.733-0.046-45.507-0.333-68.193 0.819-49.874 2.524-96.87 16.092-140.15 40.806-91.249 52.101-147.021 130.099-168.509 232.422-4.424 21.079-6.252 42.511-6.252 64.067-0.010 89.825-0.015 179.656 0.051 269.481 0 2.483 0.461 5.079 1.26 7.429 11.648 34.34 34.698 57.467 68.756 70.385 16.548 6.277 32.609 13.839 48.753 21.125 78.71 35.523 157.373 71.137 236.022 106.793 2.422 1.096 4.28 1.126 6.723 0.020 91.955-41.682 184.003-83.149 275.896-124.964 34.196-15.56 60.503-39.721 77.087-73.692 1.126-2.304 1.807-5.074 1.812-7.629 0.108-48.804 0.077-97.608 0.077-146.412h-0.056c-0.005-43.003 0.732-86.021-0.138-129.009v0zM752.881 599.424c-10.783 6.554-23.096 4.675-32.916-5.094-76.498-76.119-152.986-152.248-229.458-228.393-1.295-1.29-2.304-2.862-4.301-5.376-1.889 2.422-2.796 3.891-3.994 5.084-40.084 39.936-80.195 79.846-120.3 119.757-1.306 1.3-2.591 2.632-4.009 3.804-12.708 10.516-31.698 6.641-39.245-7.977-5.222-10.117-3.169-21.637 5.54-30.305 47.329-47.13 94.674-94.244 142.019-141.358 12.667-12.6 27.336-12.595 40.013 0.020 83.026 82.627 166.052 165.258 249.073 247.89 1.208 1.198 2.437 2.386 3.553 3.661 10.327 11.832 7.465 30.116-5.975 38.287v0z" />
<glyph unicode="&#xe93b;" glyph-name="plus" d="M992 576h-352v352c0 17.672-14.328 32-32 32h-192c-17.672 0-32-14.328-32-32v-352h-352c-17.672 0-32-14.328-32-32v-192c0-17.672 14.328-32 32-32h352v-352c0-17.672 14.328-32 32-32h192c17.672 0 32 14.328 32 32v352h352c17.672 0 32 14.328 32 32v192c0 17.672-14.328 32-32 32z" />
<glyph unicode="&#xe93c;" glyph-name="plus2" d="M992 576h-352v352c0 17.672-14.328 32-32 32h-192c-17.672 0-32-14.328-32-32v-352h-352c-17.672 0-32-14.328-32-32v-192c0-17.672 14.328-32 32-32h352v-352c0-17.672 14.328-32 32-32h192c17.672 0 32 14.328 32 32v352h352c17.672 0 32 14.328 32 32v192c0 17.672-14.328 32-32 32z" />
<glyph unicode="&#xe93d;" glyph-name="search" d="M140.18 477.588c0 190.853 155.284 346.132 346.138 346.132s346.132-155.279 346.132-346.132-155.279-346.132-346.132-346.132-346.138 155.279-346.138 346.132zM486.318 857.6c-209.536 0-380.017-170.455-380.017-380.012s170.481-380.017 380.017-380.017c90.527 0 173.686 31.939 239.053 84.992l144.215-144.164 48.113 48.113-143.58 143.626c57.324 66.565 92.242 152.95 92.242 247.48-0.031 209.526-170.511 379.981-380.042 379.981z" />
<glyph unicode="&#xe93e;" glyph-name="set" d="M511.99 554.793c-58.875 0-106.772-47.913-106.772-106.803 0-58.875 47.898-106.772 106.772-106.772 58.89 0 106.803 47.898 106.803 106.772-0.005 58.885-47.913 106.803-106.803 106.803zM511.99 315.674c-72.96 0-132.316 59.356-132.316 132.316 0 72.975 59.356 132.347 132.316 132.347 72.975 0 132.342-59.372 132.342-132.347 0-72.965-59.372-132.316-132.342-132.316zM511.99 139.709c53.028 0 102.697-26.844 132.040-70.697 47.985 16.696 91.694 41.938 130.156 75.197-23.301 47.345-21.709 103.767 4.803 149.642 26.496 45.891 74.552 75.489 127.186 79.012 4.721 24.76 7.112 49.981 7.112 75.126 0 25.17-2.391 50.412-7.112 75.177-52.628 3.497-100.68 33.091-127.186 78.986-26.501 45.891-28.088 102.303-4.803 149.637-38.533 33.295-82.232 58.547-130.156 75.203-29.353-43.858-79.027-70.697-132.040-70.697-53.002 0-102.666 26.844-132.014 70.697-47.923-16.65-91.622-41.902-130.156-75.203 23.296-47.334 21.699-103.752-4.797-149.637-26.506-45.901-74.563-75.494-127.186-78.986-4.721-24.771-7.112-50.012-7.112-75.177 0-25.134 2.391-50.36 7.112-75.126 52.634-3.517 100.685-33.121 127.186-79.012 26.506-45.87 28.093-102.292 4.797-149.642 38.461-33.254 82.166-58.501 130.156-75.197 29.338 43.858 78.996 70.697 132.014 70.697zM391.393 38.4l-9.81 3.149c-58.342 18.724-110.945 49.111-156.355 90.327l-7.624 6.922 5.151 8.919c23.803 41.231 23.859 92.324 0.148 133.361-23.706 41.052-67.994 66.575-115.584 66.596l-10.296 0.005-2.176 10.061c-6.405 29.65-9.661 60.012-9.661 90.25 0 30.28 3.256 60.657 9.667 90.301l2.171 10.061h10.301c47.58 0 91.863 25.508 115.574 66.575 23.7 41.042 23.644 92.15-0.148 133.366l-5.151 8.919 7.629 6.922c45.491 41.267 98.099 71.654 156.355 90.327l9.81 3.139 5.151-8.919c23.803-41.231 68.040-66.847 115.446-66.847 47.427 0 91.668 25.615 115.471 66.847l5.14 8.919 9.805-3.144c58.255-18.668 110.863-49.060 156.355-90.322l7.629-6.922-5.151-8.919c-23.798-41.216-23.854-92.319-0.148-133.366 23.711-41.062 67.999-66.575 115.574-66.575h10.301l2.181-10.066c6.415-29.629 9.667-60.017 9.667-90.301 0-30.254-3.256-60.621-9.667-90.245l-2.176-10.061-10.296-0.005c-47.59-0.026-91.873-25.544-115.579-66.596-23.711-41.037-23.649-92.14 0.148-133.366l5.151-8.919-7.624-6.922c-45.409-41.216-98.007-71.603-156.349-90.327l-9.81-3.149-5.151 8.924c-23.788 41.231-68.035 66.847-115.471 66.847-47.421 0-91.653-25.615-115.446-66.847l-5.151-8.919z" />
<glyph unicode="&#xe93f;" glyph-name="plus22" d="M992 576h-352v352c0 17.672-14.328 32-32 32h-192c-17.672 0-32-14.328-32-32v-352h-352c-17.672 0-32-14.328-32-32v-192c0-17.672 14.328-32 32-32h352v-352c0-17.672 14.328-32 32-32h192c17.672 0 32 14.328 32 32v352h352c17.672 0 32 14.328 32 32v192c0 17.672-14.328 32-32 32z" />
<glyph unicode="&#xe940;" glyph-name="star" d="M920.566 545.807c-0.061 0.133-0.061 0.195-0.061 0.333-0.123 0.261-0.189 0.527-0.251 0.788-0.128 0.266-0.189 0.532-0.256 0.727-0.067 0.133-0.128 0.266-0.128 0.399-2.898 8.33-9.452 15.212-18.278 18.053l-227.092 76.59-139.034 202.271c-5.294 7.936-13.548 12.298-21.929 12.626h-2.263c-8.448-0.333-16.701-4.695-22.057-12.698l-138.86-201.907-227.876-76.887c-8.883-2.842-15.37-9.718-18.34-18.053 0-0.133-0.061-0.261-0.128-0.328-0.067-0.261-0.128-0.527-0.256-0.794-0.061-0.261-0.123-0.527-0.189-0.788-0.067-0.133-0.067-0.2-0.128-0.333-2.268-8.53-0.886-18.053 4.659-25.856l140.436-201.272-0.722-250.122c-0.128-9.718 4.096-18.319 10.711-23.808 0.061-0.067 0.189-0.133 0.317-0.261 0.189-0.133 0.379-0.333 0.563-0.461 0.256-0.2 0.44-0.333 0.63-0.461 0.128-0.067 0.256-0.133 0.317-0.195 6.994-4.961 16.067-6.482 24.832-3.308l226.821 78.223 226.821-78.218c8.76-3.174 17.833-1.654 24.832 3.308 0.128 0.067 0.189 0.133 0.317 0.195 0.189 0.133 0.379 0.333 0.63 0.461 0.189 0.133 0.44 0.333 0.63 0.461 0.067 0.067 0.189 0.195 0.256 0.261 6.615 5.489 10.839 14.085 10.711 23.808l-0.732 250.122 140.436 201.272c5.54 7.803 6.927 17.326 4.659 25.851zM724.152 347.223c-0.333-0.461-0.65-0.932-0.952-1.413-3.492-5.038-5.514-11.315-5.412-18.161l0.63-217.098-195.415 67.451c-3.671 1.311-7.393 1.812-10.993 1.587-3.604 0.22-7.332-0.276-11.003-1.587l-195.415-67.451 0.63 217.098c0.102 6.989-1.992 13.384-5.617 18.478-0.241 0.369-0.492 0.732-0.748 1.096l-121.492 174.182 193.812 65.408c7.45 1.111 14.484 5.381 19.246 12.493l121.052 176.031 120.356-175.104c0.788-1.178 1.638-2.278 2.545-3.292 3.379-4.122 7.916-7.327 13.338-9.073l196.925-66.458-121.487-174.188z" />
<glyph unicode="&#xe941;" glyph-name="store" d="M832.471 334.664c-12.15 0-14.377-10.829-14.423-24.187v-182.318c0-26.87-19.804-50.534-44.16-50.534h-524.616c-24.361 0-44.165 23.665-44.165 50.534v182.246c-0.026 13.404-4.787 24.264-16.963 24.264-12.165 0-18.627-10.86-18.673-24.264v-179.615c0-51.057 37.54-92.39 83.876-92.39h517.299c46.341 0 83.881 41.334 83.881 92.39v179.686c-0.067 13.363-9.917 24.187-22.057 24.187zM866.161 504.591c-17.597-20.582-41.917-26.465-66.304-26.465-55.122 0-112.609 43.141-125.373 54.999l0.778 154.762c0.026 0.42 0.241 0.737 0.241 1.142 0 12.129-6.118 21.934-18.202 21.934-12.099 0-18.509-9.805-18.509-21.934h-0.236v-156.575c-11.95-16.297-67.082-54.042-119.593-54.042-59.284 0-106.209 40.238-114.57 53.12v157.501c0 12.134-7.25 21.934-19.313 21.934-12.104 0-16.835-9.8-16.835-21.934v-156.708c-10.732-13.952-58.097-50.755-124.344-53.484h-2.944v0.041c-29.22 0-73.651 12.288-93.148 52.234-19.548 39.839-35.63 132.721 84.977 290.524h563.026c45.578-72.033 130.596-247.163 70.349-317.051zM820.649 847.852l-6.472 9.748h-594.688l-6.533-8.366c-142.351-181.724-122.655-286.392-98.268-336.215 24.468-49.905 74.010-73.19 126.259-73.19h4.71c65.92 2.621 117.11 26.342 140.206 50.048 20.854-23.706 70.804-49.137 132.265-49.137 64.072 0 118.605 28.242 138.619 52.193 27.955-22.789 86.047-53.222 143.232-51.917 37.504 0.86 69.596 7.311 95.759 37.443 97.7 112.517-68.009 358.738-75.090 369.393z" />
<glyph unicode="&#xe942;" glyph-name="totop" d="M539.602 761.503c-0.133-237.906-0.051-475.807-0.051-713.713 0-9.242 0-9.242-11.464-9.242-12.063 0-24.141 0.312-36.173-0.128-6.262-0.225-8.182 1.562-7.306 6.426 0.297 1.638 0.046 3.348 0.046 5.023 0 237.184 0.005 474.368-0.046 711.557 0 2.755 0.922 5.652-0.809 8.443-3.359-0.881-5.012-3.251-7.163-5.038-128.507-107.279-257.019-214.554-385.306-322.007-5.366-4.49-8.018-4.567-13.005 0.061-8.622 8.008-17.884 15.585-27.366 22.886-4.557 3.507-3.958 5.335 0.189 8.781 62.459 51.907 124.723 103.987 187.023 156.022 89.293 74.593 178.647 149.13 267.771 223.852 4.966 4.168 7.188 4.291 12.257 0.051 151.24-126.582 302.659-253.015 454.17-379.361 4.465-3.717 5.622-5.796 0.317-9.805-9.994-7.557-19.369-15.677-28.652-23.849-3.482-3.072-5.468-3.594-9.272-0.169-8.97 8.079-18.555 15.683-27.889 23.485-119.736 100.004-239.478 200.018-359.219 300.017-2.176 1.818-4.439 3.553-6.907 5.514-2.145-3.149-1.142-6.062-1.147-8.806z" />
<glyph unicode="&#xe943;" glyph-name="unpaid" d="M690.847 328.32h33.807v-33.807h-33.807v33.807zM899.553 251.551h-247.357v122.9h247.357v-122.9zM124.447 67.005v455.235h775.101v-119.183h-257.603c-10.122 0-18.365-7.946-18.365-17.725v-144.671c0-9.769 8.233-17.725 18.365-17.725h257.603v-155.945l-775.101 0.015zM516.393 818.176l69.007-43.233-233.037-218.573 164.029 261.806zM838.164 597.99l-50.493-47.145h-399.38l262.856 246.538 187.018-199.393zM902.031 550.845h-72.448l49.060 45.804-226.196 241.167-45.466-42.639-99.635 62.423-192.2-306.755h-193.178c-14.403 0-26.122-11.315-26.122-25.221v-462.008c0-13.911 11.72-25.221 26.122-25.221h780.073c14.403 0 26.117 11.315 26.117 25.221v462.008c0 13.906-11.72 25.221-26.127 25.221z" />
<glyph unicode="&#xe944;" glyph-name="up" d="M102.4 244.506l408.791 433.613 410.409-433.562-28.18-26.675-382.177 403.784-380.662-403.732z" />
<glyph unicode="&#xe945;" glyph-name="vip" d="M678.052 569.774h-66.422c-12.242 0-22.139-9.897-22.139-22.139 0-12.247 9.897-22.139 22.139-22.139h12.928l-102.4-240.778c-1.618 1.065-2.545 3.364-3.277 5.98l-128.66 234.803h22.139c12.242 0 22.139 9.897 22.139 22.139s-9.897 22.139-22.139 22.139h-88.556c-12.242 0-22.139-9.897-22.139-22.139 0-12.247 9.897-22.139 22.139-22.139h11.914l143.073-265.687c4.603-12.841 18.796-22.139 33.208-22.139s28.605 9.298 33.208 22.139l122.634 265.687h10.204c12.242 0 22.139 9.897 22.139 22.139 0.010 12.237-9.887 22.134-22.134 22.134zM512 82.683c-201.743 0-365.317 163.574-365.317 365.317s163.574 365.317 365.317 365.317c201.769 0 365.317-163.574 365.317-365.317s-163.548-365.317-365.317-365.317zM512 857.6c-226.232 0-409.6-183.388-409.6-409.6 0-226.232 183.368-409.6 409.6-409.6 226.212 0 409.6 183.368 409.6 409.6 0 226.212-183.388 409.6-409.6 409.6zM512.087 303.908c0.067-0.466 3.676-7.040 6.574-12.442-0.020 0.087-0.046 0.2-0.067 0.287l-6.508 12.155zM518.666 291.466c0.138-0.266 0.241-0.512 0.343-0.778l5.105-5.98c0.205 0.005-2.345 3.082-5.448 6.758z" />
<glyph unicode="&#xe946;" glyph-name="warm" d="M488.463 282.895h47.078v-75.331h-47.078v75.331zM488.463 688.44h47.078v-348.396h-47.078v348.396zM768.343 191.662c-33.311-33.311-72.084-59.453-115.246-77.711-44.662-18.888-92.134-28.467-141.092-28.467s-96.43 9.58-141.092 28.467c-43.162 18.258-81.935 44.406-115.246 77.711-33.311 33.311-59.453 72.079-77.711 115.246-18.893 44.662-28.467 92.134-28.467 141.097s9.58 96.43 28.467 141.092c18.258 43.162 44.401 81.935 77.711 115.246s72.079 59.453 115.246 77.711c44.662 18.893 92.134 28.467 141.092 28.467s96.43-9.58 141.092-28.467c43.162-18.258 81.94-44.406 115.246-77.711s59.453-72.079 77.711-115.246c18.893-44.662 28.472-92.134 28.472-141.092s-9.58-96.435-28.472-141.097c-18.258-43.167-44.406-81.94-77.711-115.246zM512 857.6c-226.212 0-409.6-183.383-409.6-409.6s183.383-409.6 409.6-409.6 409.6 183.383 409.6 409.6-183.383 409.6-409.6 409.6z" />
<glyph unicode="&#xe947;" glyph-name="time" d="M512 38.415c-226.253 0-409.6 183.347-409.6 409.544 0 226.222 183.347 409.626 409.6 409.626 226.191 0 409.6-183.404 409.6-409.626 0-226.196-183.378-409.544-409.6-409.544v0 0 0zM512 811.182c-200.55 0-363.167-162.616-363.167-363.197 0-200.52 162.616-363.167 363.167-363.167 200.581 0 363.167 162.647 363.167 363.167 0 200.581-162.586 363.197-363.167 363.197v0 0 0zM318.915 319.8c-5.652 12.114-0.492 26.532 11.602 32.189l178.985 59.817v252.549c0 13.44 10.798 24.238 24.177 24.238 13.322 0 24.207-10.854 24.207-24.238v-265.846c0-0.952-0.517-1.812-0.604-2.76 0.579-9.533-4.593-18.893-13.783-23.229l-192.481-64.328c-12.058-5.734-26.501-0.451-32.102 11.607v0 0 0z" />
<glyph unicode="&#xe948;" glyph-name="boss" d="M932 685.4c0 0-75.4 163.2-133.6 163.2h-572.8c-58.4 0-133.6-163.2-133.6-163.2 0-51.4 39-94.2 89.8-101.8v-433.4c0-56.8 47.4-103 105.8-103h454.4c58.4 0 105.8 46.2 105.8 103v434.4c48 9.8 84.2 51.2 84.2 100.8zM742.2 74.4h-454.6c-43 0-77.8 34-77.8 75.8v432.2h610.2v-432.2c0-41.8-35-75.8-77.8-75.8zM826.2 609.6h-628.4c-43 0-77.8 34-77.8 75.8 0 0 62.8 136.2 105.8 136.2h572.8c43 0 105.8-136.2 105.8-136.2-0.2-41.8-35.2-75.8-78.2-75.8zM612 344.2c7.6 0 14 6 14 13.6s-6.2 13.6-14 13.6h-57.6l42 73.6c3.8 6.6 1.4 14.8-5.4 18.4s-15.2 1.2-19-5.2l-49.6-86.8h-17.8l-49.4 86.6c-3.8 6.6-12.2 9-19 5.2-6.8-3.6-9.2-12-5.4-18.4l42-73.6h-60.8c-7.6 0-14-6-14-13.6s6.2-13.6 14-13.6h86v-53.4h-86c-7.6 0-14-6-14-13.6 0-7.4 6.2-13.6 14-13.6h86v-63c0-7.4 6.2-13.6 14-13.6s14 6 14 13.6v63h86c7.6 0 14 6 14 13.6 0 7.4-6.2 13.6-14 13.6h-86.2v53.4h86.2z" />
<glyph unicode="&#xe949;" glyph-name="buyer" d="M852.2 480.2c0.2 9.6 0.4 19.2 0.2 29.2 2.2 114.2-32.6 213-97.8 278-59.6 59.2-144.2 90.6-244.4 90.6h-2c-100.2 0-184.8-31.4-244.4-90.8-65.4-65-100-163.8-97.8-277.6-0.2-12-0.2-23.2 0.4-34-17.4-14.6-28.4-36.4-28.4-60.6 0-44.2 36.6-80 81.8-80 1.2 0 2.2 0.2 3.2 0.4 30.8-132.2 143-222.2 289-222.2 0.2 0 0.4 0 0.6 0 146.2 0 258.4 89.8 289 222 1-0.2 1.8-0.2 2.8-0.2 45.2 0 81.8 35.8 81.8 80 0 26.8-13.4 50.6-34 65.2zM165.4 415.2c0 27 20.8 49.4 47.6 52.6 0.8-1 1.8-1.6 2.8-2.4-1.4-22.2-1.8-34.2-1.6-40l0.2-14.8c0-16.6 1.2-32.8 3.4-48.4-29 1-52.4 24.4-52.4 53zM782.4 410.8c0-159-110.8-270-269.4-270.2-0.4 0-0.8 0-1.4 0-158.8 0-269.6 111.2-269.6 270.4l-0.2 15.2c-0.2 6.6 0.8 24.8 2 42.2 86.6 30 122.6 116.2 124.2 120 2.8 7-0.6 14.8-7.8 17.6-7 2.8-15.2-0.6-18-7.6-0.4-0.8-34.4-82.4-113.6-106.4-2.4 2-5.6 3.2-9 3.2-9.2 0-18-1.4-26.2-4.2 0 6 0 12.2 0 18.8-2 106.8 29.8 198.8 90 258.6 55 54.8 130.6 82.6 224.6 82.6h2.2c94 0 169.6-27.8 224.6-82.6 60-59.8 92-151.6 90-259 0.2-5.8 0.2-11.2 0-16.6-6.6 1.6-13.4 2.6-20.4 2.6-1.8 0-3.6-0.4-5.4-1-2.2 0.8-4.6 1-7 0.6-125.4-19.2-222-5.2-286.8 41.8-63.4 45.8-73 108.4-73 109-1 7.4-8 12.6-15.6 11.6s-12.8-7.8-11.8-15.2c0.4-3 10.8-73.6 83.4-126.6 68.4-50 167-66.6 293.2-49.4 1.2-21.4 1.4-33.6 1.4-35.2l-0.4-20.2zM806.6 362.4c2.2 15.6 3.4 31.6 3.4 48l0.4 19.4c0 1.6-0.2 15-1.4 38.2 27.8-2.2 49.6-25 49.6-52.8 0-28.4-23.2-51.8-52-52.8zM590 114c-18.8 11-77.6-39.8-77.6-39.8s-59 50.8-77.6 39.8c-20.8-12.2-22.2-85.2 0-95 20-8.8 77.6 39.8 77.6 39.8s57.6-48.6 77.6-39.8c22 9.8 20.6 82.8 0 95z" />
<glyph unicode="&#xe94a;" glyph-name="openshop" d="M882.9 636.5h-139.9l-158 158.1c6.1 12.2 12.2 30.4 12.2 42.6 0 48.6-36.5 85.1-85.1 85.1s-85.1-36.5-85.1-85.1c0-18.2 6.1-30.4 12.2-42.6l-158.2-158.1h-139.9c-60.8 0-115.5-48.6-115.5-115.5v-431.7c0-66.9 54.7-115.5 115.5-115.5h741.8c66.9 0 115.5 54.7 115.5 115.5v431.7c0 66.8-54.7 115.5-115.5 115.5zM451.2 776.3c18.2-18.2 36.5-24.3 60.8-24.3s42.6 12.2 60.8 24.3l139.8-139.8h-401.2l139.8 139.8zM949.8 89.3c0-36.5-30.4-66.9-66.9-66.9h-741.8c-36.5 0-66.9 30.4-66.9 66.9v431.7c0 36.5 30.4 66.9 66.9 66.9h741.8c36.5 0 66.9-30.4 66.9-66.9v-431.7zM238.4 411.5c-30.4 0-54.7-12.2-73-30.4-18.2-18.2-24.3-42.6-24.3-79 0-30.4 6.1-54.7 24.3-73 18.2-18.2 42.6-24.3 73-24.3s54.7 12.2 73 30.4c18.2 18.2 24.3 42.6 24.3 79 0 30.4-6.1 54.7-24.3 73-18.3 12.2-42.6 24.3-73 24.3zM274.9 259.5c-12.2-12.2-24.3-18.2-36.5-18.2-18.2 0-30.4 6.1-36.5 18.2-12.2 12.2-12.2 30.4-12.2 48.6s6.1 36.5 12.2 48.6c6.1 12.3 18.3 18.3 36.5 18.3s30.4-6.1 36.5-18.2 12.2-30.4 12.2-48.6c-0.1-24.4-0.1-36.5-12.2-48.7zM439 405.4h-73v-200.6h42.6v73h24.4c24.3 0 42.6 6.1 54.7 18.2 18.2 12.2 24.3 30.4 24.3 48.6 0 42.6-24.3 60.8-73 60.8zM426.9 308.2h-18.2v66.8h18.2c24.3 0 36.5-12.2 36.5-30.4 6-24.3-6.1-36.4-36.5-36.4zM585 289.9h66.9v36.5h-66.9v48.6h73v30.4h-115.6v-200.6h121.6v36.5h-79v48.6zM834.2 296c0-12.2 0-24.3 0-30.4v0c0 0-6.1 6.1-12.2 18.2l-79 127.7h-48.6v-206.7h42.6v115.5c0 12.2 0 24.3 0 30.4v0c0-6.1 6.1-12.2 12.2-18.2l85.1-127.7h42.6v200.6h-42.6v-109.4z" />
<glyph unicode="&#xe94b;" glyph-name="openshop-pointing" d="M549.4 18.6l436.2 444c18.4 18.8 18.4 49.1 0 67.9s-48.4 18.8-66.9 0l-405.7-413.1-405.9 413.2c-18.4 18.8-48.3 18.8-66.7 0s-18.4-49.2 0-67.9l436-444c10.1-10.3 23.4-14.5 36.6-13.6 13-1 26.4 3.2 36.4 13.5v0 0zM513 352.9c13.1-0.9 26.4 3.3 36.4 13.5l436.2 444c18.4 18.8 18.4 49.1 0 68.1-18.4 18.8-48.4 18.6-66.9 0l-405.7-413.3-405.9 413.3c-18.4 18.6-48.3 18.8-66.7 0-18.4-18.9-18.4-49.3 0-68.1l436-444c10.1-10.2 23.4-14.4 36.6-13.5v0 0z" />
<glyph unicode="&#xe94c;" glyph-name="santiaogang" d="M900.231 666.584h-776.245c-32.39 0-58.637 26.001-58.637 58.081 0 32.077 26.248 58.078 58.637 58.078h776.244c32.39 0 58.637-26.001 58.637-58.078 0.001-32.080-26.247-58.081-58.636-58.081v0zM123.986 505.752h580.787c32.39 0 58.637-26.001 58.637-58.081 0-32.076-26.248-58.078-58.637-58.078h-580.787c-32.39 0-58.637 26.002-58.637 58.078 0.001 32.080 26.249 58.081 58.637 58.081v0zM123.986 228.76h385.33c32.392 0 58.636-26.001 58.636-58.078s-26.245-58.078-58.636-58.078h-385.33c-32.39 0-58.637 26.001-58.637 58.078 0.001 32.076 26.249 58.078 58.637 58.078v0z" />
<glyph unicode="&#xe94d;" glyph-name="footer-home" horiz-adv-x="1067" d="M914.659 506.212l-25.397-388.165c0-59.505-48.406-107.937-107.937-107.937h-518.603c-59.53 0-107.937 48.432-107.937 107.937l-24.965 381.79c-5.714 1.244-8 3.479-8.584 6.375h-29.943l25.397-388.165c0-80.508 65.498-146.032 146.032-146.032h518.603c80.533 0 146.032 65.524 146.032 146.032l25.397 388.165h-38.095zM19.045 386.052c-4.698 0-9.346 1.702-13.029 5.156-7.67 7.187-8.051 19.251-0.863 26.921l502.705 535.848c3.632 3.835 8.61 5.613 13.892 6.019 5.232 0 10.21-2.133 13.816-5.943l503.238-530.895c7.238-7.619 6.933-19.683-0.711-26.921-7.594-7.187-19.657-6.933-26.921 0.711l-489.346 516.241-488.889-521.117c-3.759-3.987-8.813-6.019-13.892-6.019zM310.712 604.122c-3.073 0-6.171 1.117-8.61 3.352-5.156 4.775-5.486 12.8-0.711 17.956l188.089 203.81c4.775 5.13 12.825 5.46 17.93 0.737 5.156-4.775 5.486-12.8 0.711-17.956l-188.089-203.81c-2.489-2.717-5.892-4.089-9.321-4.089zM207.164 493.493c-3.073 0-6.171 1.117-8.61 3.352-5.156 4.775-5.486 12.8-0.711 17.956l79.137 85.816c4.775 5.13 12.825 5.46 17.93 0.737 5.156-4.775 5.486-12.8 0.711-17.956l-79.137-85.816c-2.489-2.717-5.892-4.089-9.321-4.089zM428.604 8.287h185.702c3.2 55.898 12.825 295.187-52.368 365.613-22.095 23.848-52.952 23.797-75.429-0.102-66.26-70.527-60.317-309.283-57.905-365.511v0zM637.95-17.11h-233.371l-0.762 11.911c-0.762 12.571-18.159 308.749 64.203 396.394 32.127 34.26 80.838 34.21 112.533-0.051 81.168-87.644 59.276-383.949 58.286-396.546l-0.889-11.708z" />
<glyph unicode="&#xe94e;" glyph-name="footer-manage" d="M40.438 541.561c-2.747 0-5.27 1.823-6.019 4.596-0.899 3.322 1.049 6.768 4.396 7.668 21.904 5.969 71.006 32.493 71.505 32.768 3.072 1.673 6.818 0.524 8.467-2.498 1.623-3.047 0.5-6.818-2.523-8.467-2.073-1.124-50.85-27.473-74.203-33.842-0.524-0.15-1.099-0.225-1.623-0.225zM364.611-31.19l-15.585 4.995c-65.111 20.905-124.978 55.471-175.604 101.426l-12.213 11.064 6.044 10.44c43.982 76.226 18.657 181.298-76.126 223.182-17.658 7.792-37.089 10.839-56.395 10.839h-14.636l-2.548 11.788c-7.493 34.691-11.314 70.206-11.314 105.622s3.821 70.981 11.314 105.672l2.548 11.788h14.885c19.331 0 38.787 3.047 56.42 10.889 94.533 42.009 119.783 146.956 75.851 223.082l-6.044 10.465 8.941 8.092c53.248 48.278 114.813 83.843 182.971 105.697l11.489 3.696 7.543-13.087c9.666-16.734 22.053-32.069 37.713-43.408 83.668-60.691 187.092-30.046 231.024 46.055l6.019 10.44 11.464-3.696c68.183-21.829 129.748-57.394 182.996-105.697l8.916-8.092-7.593-13.162c-9.666-16.734-16.734-35.141-18.707-54.372-10.615-102.725 67.584-176.902 155.373-176.902h12.038l2.548-11.788c7.518-34.666 11.314-70.231 11.314-105.672 0-35.415-3.796-70.956-11.314-105.622l-2.548-11.788h-14.661c-19.306 0-38.762-3.047-56.42-10.864-94.732-41.934-120.033-146.956-76.051-223.157l6.019-10.44-12.188-11.064c-50.626-45.955-110.492-80.521-175.604-101.426l-15.585-4.995-7.518 13.012c-9.666 16.759-22.053 32.094-37.688 43.433-83.718 60.741-187.167 30.121-231.074-46.005l-6.019-10.44zM505.749 87.37c62.039 0 120.183-31.419 154.524-82.744 56.17 19.556 107.32 49.102 152.326 88.014-27.273 55.421-25.4 121.431 5.62 175.129 30.995 53.698 87.24 88.339 148.83 92.46 5.545 28.972 8.342 58.493 8.342 87.939s-2.797 58.992-8.342 87.964c-61.565 4.096-117.81 38.737-148.83 92.46-31.020 53.698-32.893 119.708-5.62 175.129-45.106 38.962-96.231 68.508-152.326 87.989-34.341-51.325-92.485-82.719-154.524-82.719s-120.158 31.394-154.499 82.719c-56.095-19.481-107.22-49.027-152.326-87.989 27.248-55.421 25.4-121.431-5.62-175.129-31.020-53.723-87.265-88.364-148.855-92.46-5.52-28.972-8.317-58.518-8.317-87.964 0-29.421 2.797-58.942 8.317-87.939 61.615-4.121 117.835-38.762 148.855-92.46s32.893-119.708 5.62-175.129c45.006-38.912 96.156-68.458 152.326-87.989 34.341 51.325 92.46 82.719 154.499 82.719v0zM505.731 93.624c62.564 0 120.882-30.37 156.972-81.495 52.124 18.707 99.927 46.33 142.211 82.145-26.249 56.82-23.377 122.48 7.892 176.628s86.69 89.463 148.98 95.182c4.87 27.074 7.368 54.672 7.368 82.070 0 27.448-2.473 55.046-7.368 82.145-62.289 5.694-117.71 41.010-148.98 95.157-31.269 54.122-34.117 119.783-7.892 176.628-42.359 35.865-90.137 63.463-142.211 82.17-36.090-51.15-94.408-81.52-156.972-81.52-62.539 0-120.832 30.37-156.922 81.52-52.049-18.707-99.828-46.305-142.211-82.17 26.224-56.82 23.377-122.48-7.867-176.628-31.294-54.147-86.74-89.463-149.004-95.157-4.87-27.024-7.343-54.647-7.343-82.145 0-27.473 2.473-55.046 7.343-82.070 62.264-5.719 117.71-41.035 149.004-95.182 31.269-54.147 34.117-119.808 7.867-176.628 42.284-35.815 90.087-63.438 142.211-82.145 36.090 51.125 94.383 81.495 156.922 81.495v0zM657.758-2.857l-2.697 4.021c-33.467 50.076-89.313 79.972-149.329 79.972-59.966 0-115.812-29.896-149.304-79.972l-2.672-4.021-4.571 1.598c-56.869 19.781-108.794 49.776-154.324 89.188l-3.671 3.147 2.123 4.321c26.624 54.047 24.601 117.335-5.42 169.26-29.996 51.924-83.768 85.342-143.835 89.338l-4.82 0.325-0.899 4.745c-5.595 29.271-8.442 59.242-8.442 89.088 0 29.871 2.847 59.867 8.442 89.163l0.899 4.745 4.82 0.325c60.066 3.971 113.839 37.364 143.835 89.313s32.019 115.212 5.42 169.26l-2.123 4.321 3.671 3.147c45.63 39.461 97.555 69.457 154.324 89.188l4.571 1.573 2.672-3.996c33.492-50.076 89.338-79.972 149.304-79.972 60.016 0 115.862 29.896 149.329 79.972l2.697 3.996 4.571-1.573c56.795-19.731 108.719-49.726 154.324-89.188l3.671-3.147-2.123-4.321c-26.599-54.072-24.576-117.335 5.445-169.26 29.971-51.949 83.718-85.342 143.81-89.338l4.82-0.3 0.899-4.745c5.595-29.371 8.467-59.342 8.467-89.163 0-29.771-2.872-59.742-8.467-89.088l-0.899-4.745-4.82-0.325c-60.066-3.996-113.839-37.413-143.81-89.338-30.046-51.924-32.069-115.212-5.445-169.26l2.123-4.321-3.671-3.147c-45.531-39.412-97.455-69.407-154.324-89.188l-4.571-1.598zM505.731 63.728c35.041 0 69.507-11.564 99.603-33.417 15.16-10.964 28.447-26.224 39.461-45.381l4.995-8.642 10.814 3.472c64.687 20.755 122.98 54.447 173.306 100.102l8.467 7.692-3.522 6.069c-23.052 39.936-28.073 87.989-13.787 131.821 14.536 44.556 47.479 80.122 92.709 100.152 17.108 7.568 36.939 11.414 58.942 11.414h9.641l1.499 6.868c7.418 34.217 11.164 69.307 11.164 104.273 0 35.016-3.746 70.132-11.164 104.373l-1.499 6.843h-7.018c-45.98 0-90.012 19.606-120.807 53.772-31.369 34.741-45.855 80.946-40.785 130.048 1.948 18.607 8.517 37.738 19.531 56.82l5.095 8.791-5.195 4.745c-52.574 47.678-113.389 82.794-180.699 104.373l-6.668 2.148-3.522-6.094c-28.972-50.176-82.819-81.346-140.563-81.346-35.016 0-69.432 11.539-99.528 33.367-15.16 10.989-28.422 26.224-39.436 45.331l-5.045 8.716-6.693-2.148c-67.309-21.554-128.1-56.67-180.699-104.348l-5.195-4.72 3.522-6.094c23.028-39.911 28.048-87.889 13.812-131.696-14.486-44.581-47.354-80.147-92.51-100.227-17.083-7.593-36.914-11.439-58.967-11.439h-9.84l-1.499-6.843c-7.418-34.267-11.164-69.357-11.164-104.373 0-34.966 3.746-70.032 11.164-104.273l1.499-6.868h9.591c22.004-0.025 41.834-3.846 58.892-11.389 45.281-20.005 78.249-55.571 92.784-100.152 14.311-43.857 9.291-91.885-13.762-131.846l-3.522-6.069 8.492-7.692c50.276-45.655 108.594-79.348 173.306-100.102l10.764-3.472 3.522 6.094c28.947 50.176 82.794 81.346 140.513 81.346v0zM367.516-38.672l-20.405 6.544c-66.435 21.304-126.252 55.895-177.876 102.75l-15.934 14.436 8.517 14.811c21.304 36.889 25.95 81.246 12.738 121.731-13.437 41.16-43.982 74.053-85.941 92.61-15.485 6.818-33.617 10.29-53.872 10.315h-19.681l-3.596 16.709c-7.618 35.091-11.464 71.081-11.464 106.921 0 35.89 3.846 71.905 11.464 106.996l3.596 16.709h19.931c20.305 0 38.412 3.497 53.897 10.365 41.859 18.607 72.329 51.525 85.691 92.66 13.187 40.46 8.517 84.767-12.763 121.606l-8.517 14.811 12.663 11.489c53.897 48.902 116.236 84.892 185.244 107.020l16.284 5.22 10.090-17.458c10.14-17.558 22.253-31.519 35.94-41.46 27.973-20.28 59.842-30.995 92.21-30.995 53.298 0 102.999 28.772 129.723 75.102l8.542 14.786 16.284-5.195c69.033-22.128 131.372-58.143 185.269-107.020l12.663-11.489-10.090-17.533c-10.14-17.558-16.159-35.016-17.932-51.874-4.695-45.531 8.642-88.289 37.613-120.407 28.447-31.519 69.108-49.627 111.541-49.627h17.108l3.596-16.709c7.618-35.091 11.464-71.081 11.464-106.996 0-35.865-3.846-71.83-11.464-106.921l-3.596-16.709h-19.731c-20.255 0-38.388-3.497-53.872-10.34-41.959-18.582-72.454-51.45-85.891-92.61-13.212-40.46-8.567-84.817 12.713-121.706l8.542-14.811-15.909-14.436c-51.65-46.879-111.491-81.445-177.876-102.75l-20.405-6.544-10.040 17.358c-10.14 17.608-22.253 31.594-35.965 41.534-27.973 20.305-59.867 31.020-92.285 31.020-53.273 0-102.974-28.772-129.673-75.102l-8.542-14.811zM505.756 594.904c-80.896 0-146.732-65.836-146.732-146.732s65.836-146.732 146.732-146.732c80.896 0 146.732 65.836 146.732 146.732s-65.836 146.732-146.732 146.732zM505.756 276.465c-94.683 0-171.707 77.025-171.707 171.707s77.025 171.707 171.707 171.707c94.683 0 171.707-77.025 171.707-171.707s-77.025-171.707-171.707-171.707zM219.438 576.952c-2.847 0-5.719 0.974-8.042 2.947-5.27 4.421-5.969 12.313-1.524 17.583 13.437 15.934 31.419 73.528 31.419 110.592 0 35.166-13.861 80.122-14.011 80.596-2.048 6.569 1.648 13.587 8.242 15.635 6.718 1.998 13.587-1.648 15.635-8.242 0.599-1.973 15.11-49.077 15.11-87.989 0-40.835-18.807-104.773-37.264-126.676-2.498-2.922-6.019-4.446-9.566-4.446zM196.546 564.459c0 0-45.78-35.39-62.439-43.707s-32.268-18.732-32.268-18.732zM101.878 489.537c-4.046 0-7.992 1.948-10.415 5.57-3.821 5.744-2.273 13.487 3.472 17.308 0.649 0.45 16.459 10.939 33.567 19.506 12.788 6.394 47.928 32.793 60.391 42.434 5.42 4.196 13.287 3.222 17.533-2.248 4.196-5.47 3.197-13.312-2.248-17.533-4.795-3.671-47.254-36.389-64.487-44.981-15.71-7.867-30.77-17.858-30.92-17.957-2.123-1.424-4.521-2.098-6.893-2.098z" />
</font>
</defs>
</svg>
